<svg width="102" height="102" viewBox="0 0 102 102" fill="none" xmlns="http://www.w3.org/2000/svg">
<path d="M96.0057 1H5.99434C3.24043 1 1 3.45221 1 6.46521V24.6257C1 27.6389 3.24043 30.0909 5.99434 30.0909H96.0057C98.7596 30.0909 101 27.6389 101 24.6257V6.46521C101 3.45221 98.7596 1 96.0057 1ZM97.6666 24.6259C97.6666 25.6344 96.9211 26.4547 96.0057 26.4547H5.99434C5.07891 26.4547 4.3334 25.6344 4.3334 24.6259V6.46521C4.3334 5.45676 5.07891 4.63645 5.99434 4.63645H96.0057C96.9211 4.63645 97.6666 5.45676 97.6666 6.46521V24.6259Z" fill="#6B7280" stroke="black" stroke-width="0.008"/>
<path d="M96.0057 31.9092H5.99434C3.24043 31.9092 1 34.3612 1 37.3745V55.5352C1 58.5484 3.24043 61.0004 5.99434 61.0004H96.0057C98.7596 61.0004 101 58.5484 101 55.5352V37.3745C101 34.3612 98.7596 31.9092 96.0057 31.9092ZM97.6666 55.5349C97.6666 56.5434 96.9211 57.3637 96.0057 57.3637H5.99434C5.07891 57.3637 4.3334 56.5434 4.3334 55.5349V37.3745C4.3334 36.366 5.07891 35.5457 5.99434 35.5457H96.0057C96.9211 35.5457 97.6666 36.366 97.6666 37.3745V55.5349Z" fill="#6B7280" stroke="black" stroke-width="0.008"/>
<path d="M14.3335 10.091C11.5763 10.091 9.3335 12.5377 9.3335 15.5456C9.3335 18.5535 11.5763 21.0001 14.3335 21.0001C17.0907 21.0001 19.3335 18.5535 19.3335 15.5456C19.3335 12.5377 17.0905 10.091 14.3335 10.091ZM14.3335 17.3637C13.4147 17.3637 12.6669 16.5487 12.6669 15.5456C12.6669 14.5424 13.4147 13.7274 14.3335 13.7274C15.2522 13.7274 16.0001 14.5424 16.0001 15.5456C16.0001 16.5487 15.2522 17.3637 14.3335 17.3637Z" fill="#6B7280" stroke="black" stroke-width="0.008"/>
<path d="M14.3335 41.0002C11.5763 41.0002 9.3335 43.4469 9.3335 46.4548C9.3335 49.4627 11.5763 51.9094 14.3335 51.9094C17.0907 51.9094 19.3335 49.4627 19.3335 46.4548C19.3335 43.4469 17.0905 41.0002 14.3335 41.0002ZM14.3335 48.2729C13.4147 48.2729 12.6669 47.4579 12.6669 46.4548C12.6669 45.4517 13.4147 44.6367 14.3335 44.6367C15.2522 44.6367 16.0001 45.4517 16.0001 46.4548C16.0001 47.4579 15.2522 48.2729 14.3335 48.2729Z" fill="#6B7280" stroke="black" stroke-width="0.008"/>
<path d="M26 10.091C23.2428 10.091 21 12.5377 21 15.5456C21 18.5535 23.2428 21.0001 26 21.0001C28.7572 21.0001 31 18.5535 31 15.5456C31 12.5377 28.7572 10.091 26 10.091ZM26 17.3637C25.0812 17.3637 24.3334 16.5487 24.3334 15.5456C24.3334 14.5424 25.0812 13.7274 26 13.7274C26.9187 13.7274 27.6666 14.5424 27.6666 15.5456C27.6666 16.5487 26.9187 17.3637 26 17.3637Z" fill="#6B7280" stroke="black" stroke-width="0.008"/>
<path d="M26 41.0002C23.2428 41.0002 21 43.4469 21 46.4548C21 49.4627 23.2428 51.9094 26 51.9094C28.7572 51.9094 31 49.4627 31 46.4548C31 43.4469 28.7572 41.0002 26 41.0002ZM26 48.2729C25.0812 48.2729 24.3334 47.4579 24.3334 46.4548C24.3334 45.4517 25.0812 44.6367 26 44.6367C26.9187 44.6367 27.6666 45.4517 27.6666 46.4548C27.6666 47.4579 26.9187 48.2729 26 48.2729Z" fill="#6B7280" stroke="black" stroke-width="0.008"/>
<path d="M37.6665 10.091C34.9093 10.091 32.6665 12.5377 32.6665 15.5456C32.6665 18.5535 34.9093 21.0001 37.6665 21.0001C40.4237 21.0001 42.6665 18.5535 42.6665 15.5456C42.6665 12.5377 40.4237 10.091 37.6665 10.091ZM37.6665 17.3637C36.7478 17.3637 35.9999 16.5487 35.9999 15.5456C35.9999 14.5424 36.7478 13.7274 37.6665 13.7274C38.5853 13.7274 39.3331 14.5424 39.3331 15.5456C39.3333 16.5487 38.5855 17.3637 37.6665 17.3637Z" fill="#6B7280" stroke="black" stroke-width="0.008"/>
<path d="M37.6665 41.0002C34.9093 41.0002 32.6665 43.4469 32.6665 46.4548C32.6665 49.4627 34.9093 51.9094 37.6665 51.9094C40.4237 51.9094 42.6665 49.4627 42.6665 46.4548C42.6665 43.4469 40.4237 41.0002 37.6665 41.0002ZM37.6665 48.2729C36.7478 48.2729 35.9999 47.4579 35.9999 46.4548C35.9999 45.4517 36.7478 44.6367 37.6665 44.6367C38.5853 44.6367 39.3331 45.4517 39.3331 46.4548C39.3333 47.4579 38.5855 48.2729 37.6665 48.2729Z" fill="#6B7280" stroke="black" stroke-width="0.008"/>
<path d="M87.6666 8.27289C83.9906 8.27289 81 11.5345 81 15.5456C81 19.5566 83.9906 22.8182 87.6666 22.8182C91.3426 22.8182 94.3332 19.5566 94.3332 15.5456C94.3334 11.5345 91.3426 8.27289 87.6666 8.27289ZM87.6666 19.182C85.8283 19.182 84.3332 17.5503 84.3332 15.5456C84.3332 13.541 85.8281 11.9091 87.6666 11.9091C89.5051 11.9091 91 13.541 91 15.5456C91 17.5501 89.5051 19.182 87.6666 19.182Z" fill="#6B7280" stroke="black" stroke-width="0.008"/>
<path d="M87.6666 39.1819C83.9906 39.1819 81 42.4436 81 46.4546C81 50.4656 83.9906 53.7273 87.6666 53.7273C91.3426 53.7273 94.3332 50.4656 94.3332 46.4546C94.3334 42.4438 91.3426 39.1819 87.6666 39.1819ZM87.6666 50.0911C85.8283 50.0911 84.3332 48.4594 84.3332 46.4546C84.3332 44.4499 85.8281 42.8182 87.6666 42.8182C89.5051 42.8182 91 44.4499 91 46.4546C91 48.4594 89.5051 50.0911 87.6666 50.0911Z" fill="#6B7280" stroke="black" stroke-width="0.008"/>
<path d="M96.0057 62.8185H5.99434C3.24043 62.8185 1 65.2705 1 68.2837V86.4442C1 89.4574 3.24277 91.9094 5.99922 91.9094H65.9016C66.8221 91.9094 67.5682 91.0962 67.5682 90.0913C67.5682 89.0865 66.8219 88.2732 65.9016 88.2732H5.99922C5.08047 88.2732 4.3334 87.4529 4.3334 86.4444V68.2837C4.3334 67.2753 5.07891 66.455 5.99434 66.455H96.0057C96.9211 66.455 97.6666 67.2646 97.6666 68.259V70.2069C97.6666 71.2119 98.4129 72.025 99.3332 72.025C100.254 72.025 101 71.2117 101 70.2069V68.2588C101 65.2599 98.7596 62.8185 96.0057 62.8185Z" fill="#6B7280" stroke="black" stroke-width="0.008"/>
<path d="M99.3335 81.0003H92.6669V73.7276C92.6669 72.7226 91.9206 71.9095 91.0003 71.9095H84.3337C83.4132 71.9095 82.6671 72.7228 82.6671 73.7276V81.0003H76.0001C75.0796 81.0003 74.3335 81.8136 74.3335 82.8184V90.0911C74.3335 91.0961 75.0798 91.9092 76.0001 91.9092H82.6667V99.1819C82.6667 100.187 83.413 101 84.3333 101H91.0001C91.9206 101 92.6667 100.187 92.6667 99.1819V91.9094H99.3333C100.254 91.9094 101 91.0961 101 90.0913V82.8186C101 81.8136 100.254 81.0003 99.3335 81.0003ZM97.6667 88.273H91.0001C90.0796 88.273 89.3335 89.0862 89.3335 90.0911V97.364H86.0001V90.0913C86.0001 89.0862 85.2538 88.2732 84.3335 88.2732H77.6669V84.6367H84.3335C85.254 84.6367 86.0001 83.8234 86.0001 82.8186V75.5457H89.3335V82.8184C89.3335 83.8234 90.0798 84.6365 91.0001 84.6365H97.6667V88.273Z" fill="#6B7280" stroke="black" stroke-width="0.008"/>
<path d="M14.3335 71.9093C11.5763 71.9093 9.3335 74.356 9.3335 77.3639C9.3335 80.3718 11.5763 82.8184 14.3335 82.8184C17.0907 82.8184 19.3335 80.3718 19.3335 77.3639C19.3335 74.356 17.0905 71.9093 14.3335 71.9093ZM14.3335 79.1822C13.4147 79.1822 12.6669 78.3672 12.6669 77.3641C12.6669 76.361 13.4147 75.546 14.3335 75.546C15.2522 75.546 16.0001 76.361 16.0001 77.3641C16.0001 78.3672 15.2522 79.1822 14.3335 79.1822Z" fill="#6B7280" stroke="black" stroke-width="0.008"/>
<path d="M26 71.9093C23.2428 71.9093 21 74.356 21 77.3639C21 80.3718 23.2428 82.8184 26 82.8184C28.7572 82.8184 31 80.3718 31 77.3639C31 74.356 28.7572 71.9093 26 71.9093ZM26 79.1822C25.0812 79.1822 24.3334 78.3672 24.3334 77.3641C24.3334 76.361 25.0812 75.546 26 75.546C26.9187 75.546 27.6666 76.361 27.6666 77.3641C27.6666 78.3672 26.9187 79.1822 26 79.1822Z" fill="#6B7280" stroke="black" stroke-width="0.008"/>
<path d="M37.6665 71.9093C34.9093 71.9093 32.6665 74.356 32.6665 77.3639C32.6665 80.3718 34.9093 82.8184 37.6665 82.8184C40.4237 82.8184 42.6665 80.3718 42.6665 77.3639C42.6665 74.356 40.4237 71.9093 37.6665 71.9093ZM37.6665 79.1822C36.7478 79.1822 35.9999 78.3672 35.9999 77.3641C35.9999 76.361 36.7478 75.546 37.6665 75.546C38.5853 75.546 39.3331 76.361 39.3331 77.3641C39.3331 78.3672 38.5855 79.1822 37.6665 79.1822Z" fill="#6B7280" stroke="black" stroke-width="0.008"/>
</svg>
