<svg width="1750" height="483" viewBox="0 0 1750 483" fill="none" xmlns="http://www.w3.org/2000/svg">
<ellipse cx="867" cy="221.5" rx="233" ry="140.5" transform="rotate(-180 867 221.5)" fill="#D9D9D9"/>
<ellipse cx="532.5" cy="242" rx="307.5" ry="180" transform="rotate(-180 532.5 242)" fill="#D9D9D9"/>
<ellipse cx="307.5" cy="241.5" rx="307.5" ry="241.5" transform="rotate(-180 307.5 241.5)" fill="#D9D9D9"/>
<path d="M1577.25 178.668C1605.73 203.11 1605.73 242.879 1577.25 267.326C1572.33 271.541 1564.37 271.541 1559.46 267.326C1554.55 263.112 1554.55 256.279 1559.46 252.063C1578.14 236.037 1578.13 209.957 1559.46 193.933C1557.01 191.825 1555.78 189.062 1555.78 186.3C1555.78 183.539 1557 180.776 1559.46 178.668C1564.37 174.452 1572.34 174.452 1577.25 178.668Z" fill="#D9D9D9"/>
<path d="M1138.8 0.160034L1254.3 17.3144C1300.98 24.277 1338.11 45.9363 1353.62 75.2381C1354.92 77.6715 1356.46 80.1 1358.21 82.4506C1376.46 106.945 1416.83 122.775 1461.08 122.775H1522.78C1567.32 122.775 1610.5 130.716 1651.09 146.369C1681.95 158.227 1710.24 174.249 1735.15 193.976C1743.8 200.79 1749.03 210.086 1749.87 220.129C1750.92 232.156 1745.55 243.792 1735.17 252.015C1710.07 271.868 1681.52 287.99 1650.29 299.934C1650.24 299.951 1650.2 299.965 1650.15 299.982C1650.11 300 1650.06 300.019 1650.01 300.037C1645.55 301.734 1641.11 303.327 1636.81 304.759C1600.29 316.994 1561.93 323.199 1522.78 323.199H1504.28C1497.33 323.199 1491.7 318.368 1491.7 312.405C1491.7 306.443 1497.33 301.612 1504.28 301.612H1522.78C1558.78 301.612 1594.07 295.904 1627.68 284.643C1629.3 284.103 1630.95 283.524 1632.6 282.94V163.041C1597.66 150.649 1560.76 144.359 1522.78 144.359L1110.67 144.359V189.168H1149.6C1156.54 189.168 1162.17 193.999 1162.17 199.961C1162.17 205.923 1156.54 210.755 1149.6 210.755L1048.17 210.755V235.22L1199.38 235.22C1207.24 235.22 1213.63 229.733 1213.63 222.988C1213.63 216.242 1207.24 210.755 1199.38 210.755H1191.52C1184.58 210.755 1178.94 205.923 1178.94 199.961C1178.94 193.999 1184.58 189.168 1191.52 189.168H1199.38C1221.11 189.168 1238.79 204.339 1238.79 222.986C1238.79 241.635 1221.11 256.805 1199.38 256.805H1110.67V301.612H1463.59C1470.54 301.612 1476.17 306.443 1476.17 312.405C1476.17 318.368 1470.54 323.199 1463.59 323.199H1461.08C1416.87 323.199 1376.49 339.029 1358.22 363.532C1356.44 365.916 1354.9 368.337 1353.63 370.752C1338.11 400.063 1300.97 421.712 1254.29 428.656L1138.8 445.84C1132.39 446.794 1126.2 443.4 1124.51 438.014L1088.46 323.199H1035.58C1028.63 323.199 1023 318.368 1023 312.405V133.565C1023 127.603 1028.63 122.771 1035.58 122.771H1088.46L1124.51 7.98419C1126.2 2.5983 1132.39 -0.792877 1138.8 0.160034ZM1657.76 272.803C1679.62 262.861 1699.87 250.58 1718.12 236.147C1722.82 232.418 1725.24 227.142 1724.78 221.695C1724.4 217.149 1722.04 212.951 1718.12 209.858C1699.84 195.382 1679.59 183.092 1657.75 173.173V272.803H1657.76ZM1114.51 323.199L1145.81 422.889L1174.25 418.654V323.199L1114.51 323.199ZM1199.4 323.199V414.912L1250 407.389C1287.9 401.75 1318.83 384.29 1330.72 361.847C1332.48 358.503 1334.6 355.154 1337.04 351.893C1345.35 340.746 1357.12 331.035 1371.27 323.199H1199.4ZM1048.15 256.808V301.614L1085.51 301.614V256.808L1048.15 256.808ZM1048.16 144.36V189.169H1085.51V144.36H1048.16ZM1114.51 122.773H1170.6C1170.62 122.773 1170.63 122.771 1170.64 122.771H1174.25V97.7893C1174.25 91.8271 1179.88 86.9956 1186.83 86.9956C1193.77 86.9956 1199.41 91.8271 1199.41 97.7893V122.771L1360.02 122.771C1360.03 122.771 1360.04 122.773 1360.05 122.773H1371.26C1357.1 114.935 1345.32 105.228 1337.01 94.0728C1334.63 90.8693 1332.52 87.5452 1330.73 84.1808C1318.83 61.7088 1287.89 44.2365 1250 38.585L1199.4 31.0703V61.8112C1199.4 67.7734 1193.77 72.6049 1186.82 72.6049C1179.88 72.6049 1174.25 67.7734 1174.25 61.8112V27.3331L1145.81 23.1097L1114.51 122.773Z" fill="#D9D9D9"/>
<path d="M316.553 213.408V229.92C315.593 231.072 314.217 232.32 312.425 233.664C310.633 234.944 308.521 236.128 306.089 237.216C303.721 238.304 301.065 239.2 298.121 239.904C295.241 240.608 292.233 240.96 289.097 240.96C283.785 240.96 278.985 240.128 274.697 238.464C270.409 236.8 266.697 234.432 263.561 231.36C260.489 228.224 258.121 224.512 256.457 220.224C254.793 215.936 253.961 211.168 253.961 205.92C253.961 200.8 254.825 196.096 256.553 191.808C258.281 187.52 260.713 183.808 263.849 180.672C266.985 177.536 270.633 175.136 274.793 173.472C278.953 171.744 283.465 170.88 288.329 170.88C292.745 170.88 296.521 171.552 299.656 172.896C302.793 174.24 305.385 176.128 307.433 178.56C309.481 180.928 311.049 183.712 312.137 186.912L308.009 185.28L309.641 171.84H314.921V192.192H309.353C308.457 189.12 307.145 186.4 305.417 184.032C303.753 181.664 301.641 179.808 299.081 178.464C296.521 177.056 293.481 176.352 289.961 176.352C287.017 176.352 284.329 177.024 281.897 178.368C279.465 179.712 277.353 181.632 275.561 184.128C273.769 186.624 272.393 189.728 271.433 193.44C270.473 197.088 269.993 201.248 269.993 205.92C269.993 210.784 270.441 215.072 271.337 218.784C272.233 222.496 273.545 225.6 275.273 228.096C277.001 230.592 279.081 232.48 281.513 233.76C284.009 235.04 286.793 235.68 289.865 235.68C292.169 235.68 294.121 235.424 295.721 234.912C297.385 234.336 298.761 233.696 299.849 232.992C301.001 232.224 301.865 231.552 302.441 230.976V213.408C302.441 212.064 301.801 211.168 300.521 210.72C299.305 210.272 297.705 210.048 295.721 210.048H294.953V206.016H322.217V210.048H321.641C320.361 210.048 319.177 210.272 318.089 210.72C317.065 211.168 316.553 212.064 316.553 213.408ZM381.392 219.264V240L327.728 240V235.68H328.592C330.384 235.68 331.888 235.456 333.104 235.008C334.384 234.56 335.024 233.632 335.024 232.224V179.616C335.024 178.208 334.384 177.28 333.104 176.832C331.888 176.384 330.384 176.16 328.592 176.16H327.728V171.84L379.088 171.84V190.176H374.096L372.656 181.536C372.464 180.32 371.952 179.392 371.12 178.752C370.352 178.112 369.2 177.664 367.664 177.408C366.192 177.152 364.304 177.024 362 177.024H350.288V234.816H363.152C365.072 234.816 366.736 234.752 368.144 234.624C369.552 234.496 370.704 234.272 371.6 233.952C372.496 233.568 373.168 233.088 373.616 232.512C374.128 231.872 374.448 231.104 374.576 230.208L376.208 219.264H381.392ZM348.272 202.848C351.344 202.72 354.16 202.592 356.72 202.464C359.344 202.336 361.808 202.176 364.112 201.984C366.48 201.728 368.784 201.408 371.024 201.024V209.376C368.784 208.928 366.48 208.576 364.112 208.32C361.808 208.064 359.344 207.872 356.72 207.744C354.16 207.552 351.344 207.424 348.272 207.36V202.848ZM409.427 232.32V176.928H404.339C401.971 176.928 400.051 177.056 398.579 177.312C397.107 177.568 396.019 178.048 395.315 178.752C394.611 179.392 394.163 180.32 393.971 181.536L392.435 191.904H387.443V171.84L446.675 171.84V191.904H441.683L440.147 181.536C440.019 180.32 439.571 179.392 438.802 178.752C438.099 178.048 437.011 177.568 435.539 177.312C434.067 177.056 432.147 176.928 429.779 176.928H424.691V232.32C424.691 233.728 425.299 234.656 426.515 235.104C427.795 235.488 429.299 235.68 431.027 235.68H432.562V240L401.555 240V235.68H403.091C404.883 235.68 406.387 235.488 407.603 235.104C408.819 234.656 409.427 233.728 409.427 232.32ZM505.73 208.8L520.034 206.688L533.09 232.896C533.474 233.728 533.922 234.368 534.434 234.816C535.01 235.2 535.65 235.456 536.354 235.584C537.058 235.648 537.858 235.68 538.754 235.68H539.234V240H519.746L505.73 208.8ZM497.57 234.72C497.57 234.912 497.762 235.072 498.146 235.2C498.53 235.264 499.01 235.36 499.586 235.488C500.162 235.552 500.802 235.616 501.506 235.68C502.21 235.68 502.914 235.68 503.618 235.68H504.674V240H475.01V235.68H475.874C477.666 235.68 479.17 235.488 480.386 235.104C481.666 234.656 482.306 233.728 482.306 232.32V179.52C482.306 178.112 481.666 177.216 480.386 176.832C479.17 176.384 477.666 176.16 475.874 176.16H475.01V171.84H507.362C512.802 171.84 517.442 172.64 521.281 174.24C525.122 175.84 528.066 178.08 530.114 180.96C532.162 183.776 533.186 187.104 533.186 190.944C533.186 194.592 532.258 197.792 530.402 200.544C528.546 203.296 525.89 205.504 522.434 207.168C518.978 208.832 514.786 209.824 509.858 210.144C509.474 210.208 509.026 210.272 508.514 210.336C508.066 210.336 507.586 210.368 507.074 210.432C506.626 210.432 506.146 210.432 505.634 210.432H495.17V205.536H504.674C507.682 205.536 510.082 204.992 511.874 203.904C513.73 202.752 515.106 201.088 516.002 198.912C516.898 196.736 517.346 194.048 517.346 190.848C517.346 187.84 516.898 185.312 516.002 183.264C515.106 181.152 513.73 179.584 511.874 178.56C510.082 177.472 507.842 176.928 505.154 176.928H497.57V234.72ZM556.919 215.52C556.919 218.848 557.239 221.792 557.879 224.352C558.519 226.848 559.447 228.928 560.663 230.592C561.943 232.256 563.479 233.536 565.271 234.432C567.127 235.264 569.207 235.68 571.511 235.68C573.943 235.68 576.087 235.232 577.943 234.336C579.799 233.44 581.399 232.256 582.743 230.784C584.151 229.248 585.303 227.648 586.199 225.984L590.327 229.056C589.111 231.424 587.511 233.504 585.527 235.296C583.607 237.088 581.303 238.496 578.615 239.52C575.991 240.48 572.919 240.96 569.399 240.96C564.087 240.96 559.383 239.936 555.287 237.888C551.255 235.776 548.087 232.8 545.783 228.96C543.479 225.12 542.327 220.608 542.327 215.424C542.327 210.24 543.415 205.696 545.591 201.792C547.831 197.888 550.871 194.848 554.711 192.672C558.551 190.496 562.871 189.408 567.671 189.408C571.447 189.408 574.775 189.984 577.655 191.136C580.535 192.288 582.967 193.984 584.951 196.224C586.935 198.4 588.439 201.152 589.463 204.48C590.551 207.744 591.095 211.552 591.095 215.904H552.311L552.215 211.2H579.671L577.367 212.736C577.303 209.408 577.079 206.592 576.695 204.288C576.311 201.92 575.735 200.032 574.967 198.624C574.199 197.152 573.207 196.096 571.991 195.456C570.839 194.752 569.495 194.4 567.959 194.4C566.295 194.4 564.791 194.816 563.447 195.648C562.103 196.48 560.951 197.76 559.991 199.488C559.031 201.216 558.263 203.424 557.687 206.112C557.175 208.736 556.919 211.872 556.919 215.52ZM627.875 261.408V257.28H629.123C629.955 257.28 630.851 257.248 631.811 257.184C632.771 257.12 633.603 257.024 634.307 256.896C635.075 256.768 635.459 256.608 635.459 256.416V201.024L636.323 200.16L641.411 190.08H649.955V254.208C649.955 255.424 650.531 256.224 651.683 256.608C652.835 257.056 654.211 257.28 655.811 257.28H656.003V261.408L627.875 261.408ZM620.867 189.408C623.939 189.408 626.627 189.92 628.931 190.944C631.299 191.904 633.379 193.408 635.171 195.456C637.027 197.504 638.659 200.096 640.067 203.232L637.955 208.32C636.803 205.44 635.555 203.072 634.211 201.216C632.867 199.36 631.363 197.984 629.699 197.088C628.099 196.128 626.307 195.648 624.323 195.648C622.403 195.648 620.707 196.096 619.234 196.992C617.827 197.888 616.643 199.2 615.683 200.928C614.723 202.656 613.987 204.768 613.475 207.264C613.027 209.76 612.803 212.576 612.803 215.712C612.803 218.72 613.027 221.408 613.475 223.776C613.987 226.144 614.691 228.128 615.587 229.728C616.547 231.328 617.699 232.544 619.043 233.376C620.387 234.144 621.923 234.528 623.651 234.528C625.763 234.528 627.619 234.016 629.219 232.992C630.883 231.904 632.419 230.368 633.827 228.384C635.235 226.336 636.579 223.776 637.859 220.704L639.587 225.504C637.923 228.96 636.163 231.84 634.307 234.144C632.515 236.448 630.467 238.176 628.163 239.328C625.859 240.416 623.075 240.96 619.811 240.96C615.459 240.96 611.619 239.936 608.291 237.888C605.027 235.776 602.467 232.832 600.611 229.056C598.755 225.28 597.827 220.832 597.827 215.712C597.827 210.528 598.787 205.984 600.707 202.08C602.691 198.112 605.411 195.008 608.867 192.768C612.387 190.528 616.387 189.408 620.867 189.408ZM679.268 190.368V225.216C679.268 227.328 679.492 229.024 679.94 230.304C680.388 231.584 681.06 232.544 681.956 233.184C682.916 233.76 684.132 234.048 685.604 234.048C687.268 234.048 688.804 233.632 690.212 232.8C691.684 231.968 693.092 230.784 694.436 229.248C695.78 227.648 697.028 225.664 698.18 223.296L699.428 227.904C697.956 230.72 696.292 233.12 694.436 235.104C692.58 237.024 690.5 238.496 688.196 239.52C685.892 240.48 683.3 240.96 680.42 240.96C677.284 240.96 674.532 240.352 672.164 239.136C669.796 237.92 667.972 236.096 666.692 233.664C665.412 231.232 664.772 228.256 664.772 224.736V198.336C664.772 197.184 664.388 196.384 663.62 195.936C662.852 195.488 661.572 195.104 659.78 194.784L658.724 194.592V190.368L679.268 190.368ZM711.236 190.368V232.704C711.236 233.472 711.46 234.08 711.908 234.528C712.356 234.912 712.996 235.2 713.828 235.392C714.66 235.584 715.652 235.712 716.804 235.776H717.284V240H697.7V229.44L696.74 229.248V198.336C696.74 197.184 696.228 196.384 695.204 195.936C694.244 195.424 692.868 195.072 691.076 194.88L689.348 194.592V190.368H711.236ZM736.637 215.52C736.637 218.848 736.957 221.792 737.597 224.352C738.237 226.848 739.165 228.928 740.381 230.592C741.661 232.256 743.197 233.536 744.989 234.432C746.845 235.264 748.925 235.68 751.229 235.68C753.661 235.68 755.805 235.232 757.661 234.336C759.517 233.44 761.117 232.256 762.461 230.784C763.869 229.248 765.021 227.648 765.917 225.984L770.045 229.056C768.829 231.424 767.229 233.504 765.245 235.296C763.325 237.088 761.021 238.496 758.333 239.52C755.709 240.48 752.637 240.96 749.117 240.96C743.805 240.96 739.101 239.936 735.005 237.888C730.973 235.776 727.805 232.8 725.501 228.96C723.197 225.12 722.045 220.608 722.045 215.424C722.045 210.24 723.133 205.696 725.309 201.792C727.549 197.888 730.589 194.848 734.429 192.672C738.269 190.496 742.589 189.408 747.389 189.408C751.165 189.408 754.493 189.984 757.373 191.136C760.253 192.288 762.685 193.984 764.669 196.224C766.653 198.4 768.157 201.152 769.181 204.48C770.269 207.744 770.813 211.552 770.813 215.904H732.029L731.933 211.2H759.389L757.085 212.736C757.021 209.408 756.797 206.592 756.413 204.288C756.029 201.92 755.453 200.032 754.685 198.624C753.917 197.152 752.925 196.096 751.709 195.456C750.557 194.752 749.213 194.4 747.677 194.4C746.013 194.4 744.509 194.816 743.165 195.648C741.821 196.48 740.669 197.76 739.709 199.488C738.749 201.216 737.981 203.424 737.405 206.112C736.893 208.736 736.637 211.872 736.637 215.52ZM807.31 228.576C807.31 227.296 806.99 226.24 806.35 225.408C805.71 224.576 804.814 223.872 803.662 223.296C802.574 222.72 801.262 222.208 799.726 221.76C798.254 221.248 796.622 220.736 794.83 220.224C792.974 219.712 791.054 219.104 789.07 218.4C787.15 217.696 785.358 216.768 783.694 215.616C782.094 214.464 780.814 212.992 779.854 211.2C778.894 209.408 778.414 207.136 778.414 204.384C778.414 201.248 779.246 198.56 780.91 196.32C782.574 194.08 784.91 192.384 787.918 191.232C790.926 190.016 794.478 189.408 798.574 189.408C801.774 189.408 804.558 189.664 806.926 190.176C809.358 190.688 811.342 191.296 812.878 192C814.414 192.704 815.502 193.312 816.142 193.824V203.328L805.87 203.328V193.824C806.51 193.824 807.054 193.984 807.502 194.304C807.95 194.56 808.27 194.912 808.462 195.36C808.718 195.808 808.846 196.288 808.846 196.8C808.846 197.248 808.782 197.632 808.654 197.952C808.014 197.184 807.214 196.544 806.254 196.032C805.294 195.456 804.206 195.008 802.99 194.688C801.774 194.368 800.366 194.208 798.766 194.208C795.694 194.208 793.422 194.848 791.95 196.128C790.478 197.408 789.742 199.04 789.742 201.024C789.742 202.368 790.094 203.488 790.798 204.384C791.502 205.28 792.43 206.048 793.582 206.688C794.798 207.264 796.174 207.776 797.71 208.224C799.31 208.672 801.006 209.152 802.798 209.664C804.782 210.176 806.734 210.816 808.654 211.584C810.638 212.288 812.43 213.184 814.03 214.272C815.694 215.36 817.006 216.768 817.966 218.496C818.99 220.16 819.502 222.24 819.502 224.736C819.502 228.064 818.638 230.944 816.91 233.376C815.182 235.808 812.686 237.696 809.422 239.04C806.158 240.32 802.158 240.96 797.422 240.96C794.03 240.96 790.99 240.672 788.302 240.096C785.678 239.52 783.406 238.816 781.486 237.984C779.566 237.152 777.998 236.352 776.782 235.584V225.216H787.534V236.832C786.83 236.448 786.222 236.032 785.71 235.584C785.262 235.072 784.942 234.592 784.75 234.144C784.558 233.696 784.494 233.28 784.558 232.896C784.622 232.448 784.782 232.032 785.038 231.648C785.934 232.672 786.99 233.504 788.206 234.144C789.422 234.784 790.798 235.296 792.334 235.68C793.87 236 795.502 236.16 797.23 236.16C799.406 236.16 801.23 235.872 802.702 235.296C804.174 234.656 805.294 233.792 806.062 232.704C806.894 231.552 807.31 230.176 807.31 228.576ZM822.862 195.168V190.848H823.15C824.814 190.848 826.222 190.688 827.374 190.368C828.59 190.048 829.518 189.504 830.158 188.736C830.798 187.968 831.182 186.912 831.31 185.568L836.686 190.368H856.654V195.168H822.862ZM844.27 225.408C844.27 227.904 844.558 229.888 845.134 231.36C845.71 232.832 846.542 233.888 847.63 234.528C848.718 235.104 850.03 235.392 851.566 235.392C852.846 235.392 854.03 235.232 855.118 234.912C856.27 234.592 857.07 234.368 857.518 234.24V239.232C856.942 239.552 856.174 239.84 855.214 240.096C854.318 240.352 853.262 240.544 852.046 240.672C850.83 240.864 849.486 240.96 848.014 240.96C844.558 240.96 841.454 240.448 838.702 239.424C835.95 238.4 833.774 236.672 832.174 234.24C830.574 231.808 829.774 228.544 829.774 224.448V191.52L830.926 190.752L831.79 177.408H844.27V225.408Z" fill="#101010" fill-opacity="0.51"/>
<path d="M1300.69 226.592H1327.7V230.56H1300.69V226.592ZM1290.58 252V248.672H1291.16C1292.4 248.672 1293.42 248.523 1294.23 248.224C1295.08 247.925 1295.51 247.328 1295.51 246.432V212.128C1295.51 211.232 1295.08 210.635 1294.23 210.336C1293.42 210.037 1292.4 209.888 1291.16 209.888H1290.58V206.56H1310.61V209.888H1310.04C1309.57 209.888 1309.08 209.909 1308.57 209.952C1308.05 209.952 1307.58 209.995 1307.16 210.08C1306.73 210.123 1306.37 210.187 1306.07 210.272C1305.81 210.315 1305.69 210.379 1305.69 210.464V248.096C1305.69 248.181 1305.81 248.267 1306.07 248.352C1306.37 248.395 1306.73 248.459 1307.16 248.544C1307.58 248.587 1308.05 248.629 1308.57 248.672C1309.08 248.672 1309.57 248.672 1310.04 248.672H1310.61V252H1290.58ZM1318.68 252V248.672H1319.25C1319.72 248.672 1320.21 248.672 1320.73 248.672C1321.24 248.629 1321.71 248.587 1322.13 248.544C1322.56 248.459 1322.9 248.395 1323.16 248.352C1323.41 248.267 1323.54 248.181 1323.54 248.096V210.464C1323.54 210.379 1323.41 210.315 1323.16 210.272C1322.9 210.187 1322.56 210.123 1322.13 210.08C1321.71 209.995 1321.24 209.952 1320.73 209.952C1320.21 209.909 1319.72 209.888 1319.25 209.888H1318.68V206.56H1338.71V209.888H1338.07C1336.88 209.888 1335.85 210.037 1335 210.336C1334.19 210.635 1333.78 211.232 1333.78 212.128V246.432C1333.78 247.328 1334.19 247.925 1335 248.224C1335.85 248.523 1336.88 248.672 1338.07 248.672H1338.71V252H1318.68ZM1357.8 246.432V210.464H1354.86C1353.24 210.464 1351.91 210.549 1350.89 210.72C1349.91 210.848 1349.16 211.125 1348.65 211.552C1348.14 211.979 1347.84 212.576 1347.75 213.344L1346.92 220.192H1342.89V206.56H1382.95V220.192H1378.92L1378.15 213.344C1378.07 212.576 1377.77 211.979 1377.26 211.552C1376.75 211.125 1375.98 210.848 1374.95 210.72C1373.97 210.549 1372.67 210.464 1371.05 210.464H1368.04V246.432C1368.04 247.371 1368.45 247.989 1369.26 248.288C1370.07 248.544 1371.09 248.672 1372.33 248.672H1373.29V252H1352.55V248.672H1353.58C1354.77 248.672 1355.78 248.544 1356.59 248.288C1357.4 247.989 1357.8 247.371 1357.8 246.432ZM1402.55 246.432V210.464H1399.61C1397.99 210.464 1396.66 210.549 1395.64 210.72C1394.66 210.848 1393.91 211.125 1393.4 211.552C1392.89 211.979 1392.59 212.576 1392.5 213.344L1391.67 220.192H1387.64V206.56H1427.7V220.192H1423.67L1422.9 213.344C1422.82 212.576 1422.52 211.979 1422.01 211.552C1421.5 211.125 1420.73 210.848 1419.7 210.72C1418.72 210.549 1417.42 210.464 1415.8 210.464H1412.79V246.432C1412.79 247.371 1413.2 247.989 1414.01 248.288C1414.82 248.544 1415.84 248.672 1417.08 248.672H1418.04V252H1397.3V248.672H1398.33C1399.52 248.672 1400.53 248.544 1401.34 248.288C1402.15 247.989 1402.55 247.371 1402.55 246.432ZM1447.13 247.84C1447.13 248.011 1447.25 248.16 1447.51 248.288C1447.77 248.373 1448.09 248.459 1448.47 248.544C1448.9 248.587 1449.34 248.629 1449.81 248.672C1450.28 248.672 1450.75 248.672 1451.22 248.672H1452.76V252H1432.02V248.672H1432.66C1433.86 248.672 1434.86 248.544 1435.67 248.288C1436.52 247.989 1436.95 247.371 1436.95 246.432V212.128C1436.95 211.232 1436.52 210.635 1435.67 210.336C1434.86 210.037 1433.86 209.888 1432.66 209.888H1432.02V206.56H1453.65C1459.16 206.56 1463.42 207.733 1466.45 210.08C1469.48 212.427 1471 215.691 1471 219.872C1471 222.688 1470.27 225.141 1468.82 227.232C1467.41 229.323 1465.39 230.944 1462.74 232.096C1460.1 233.248 1456.98 233.824 1453.4 233.824H1445.14V229.92H1451.67C1453.63 229.92 1455.27 229.536 1456.6 228.768C1457.96 228 1458.99 226.891 1459.67 225.44C1460.35 223.947 1460.69 222.133 1460.69 220C1460.69 217.867 1460.35 216.096 1459.67 214.688C1459.03 213.28 1458.05 212.235 1456.73 211.552C1455.45 210.869 1453.85 210.528 1451.93 210.528H1447.13V247.84ZM1493.71 248.544C1495.41 248.544 1496.89 248.309 1498.12 247.84C1499.4 247.371 1500.36 246.624 1501 245.6C1501.69 244.576 1502.03 243.253 1502.03 241.632C1502.03 240.309 1501.71 239.2 1501.07 238.304C1500.47 237.365 1499.62 236.597 1498.51 236C1497.44 235.36 1496.16 234.805 1494.67 234.336C1493.17 233.824 1491.57 233.312 1489.87 232.8C1488.2 232.331 1486.56 231.755 1484.94 231.072C1483.36 230.389 1481.93 229.515 1480.65 228.448C1479.37 227.381 1478.35 226.08 1477.58 224.544C1476.81 222.965 1476.43 221.024 1476.43 218.72C1476.43 216.032 1477.09 213.749 1478.41 211.872C1479.78 209.952 1481.57 208.48 1483.79 207.456C1486.01 206.432 1488.46 205.92 1491.15 205.92C1493.45 205.92 1495.5 206.24 1497.29 206.88C1499.08 207.52 1500.64 208.544 1501.96 209.952C1503.29 211.36 1504.37 213.216 1505.23 215.52L1502.48 214.88L1503.5 206.56H1507.34V218.464H1503.12C1502.56 216.672 1501.75 215.157 1500.68 213.92C1499.62 212.64 1498.36 211.659 1496.91 210.976C1495.5 210.293 1493.94 209.952 1492.24 209.952C1490.61 209.952 1489.23 210.208 1488.08 210.72C1486.97 211.189 1486.11 211.893 1485.52 212.832C1484.96 213.728 1484.68 214.816 1484.68 216.096C1484.68 217.376 1484.98 218.443 1485.58 219.296C1486.22 220.107 1487.07 220.811 1488.14 221.408C1489.21 221.963 1490.42 222.453 1491.79 222.88C1493.2 223.307 1494.69 223.733 1496.27 224.16C1498.1 224.629 1499.85 225.205 1501.52 225.888C1503.22 226.571 1504.76 227.445 1506.12 228.512C1507.49 229.536 1508.56 230.837 1509.32 232.416C1510.13 233.995 1510.54 235.936 1510.54 238.24C1510.54 241.184 1509.86 243.744 1508.49 245.92C1507.13 248.053 1505.23 249.717 1502.8 250.912C1500.41 252.064 1497.61 252.64 1494.41 252.64C1491.89 252.64 1489.53 252.256 1487.31 251.488C1485.13 250.72 1483.19 249.504 1481.48 247.84C1479.82 246.176 1478.5 243.979 1477.52 241.248L1480.4 242.336L1479.37 252H1475.34V237.92H1479.82C1480.59 240.181 1481.63 242.123 1482.96 243.744C1484.32 245.323 1485.92 246.517 1487.76 247.328C1489.59 248.139 1491.57 248.544 1493.71 248.544Z" fill="#101010" fill-opacity="0.51"/>
</svg>
