<svg width="1750" height="483" viewBox="0 0 1750 483" fill="none" xmlns="http://www.w3.org/2000/svg">
<ellipse cx="867" cy="221.5" rx="233" ry="140.5" transform="rotate(-180 867 221.5)" fill="#D9D9D9"/>
<ellipse cx="532.5" cy="242" rx="307.5" ry="180" transform="rotate(-180 532.5 242)" fill="#D9D9D9"/>
<ellipse cx="307.5" cy="241.5" rx="307.5" ry="241.5" transform="rotate(-180 307.5 241.5)" fill="#D9D9D9"/>
<path d="M1577.25 178.668C1605.73 203.11 1605.73 242.879 1577.25 267.326C1572.33 271.541 1564.37 271.541 1559.46 267.326C1554.55 263.112 1554.55 256.279 1559.46 252.063C1578.14 236.037 1578.13 209.957 1559.46 193.933C1557.01 191.825 1555.78 189.062 1555.78 186.3C1555.78 183.539 1557 180.776 1559.46 178.668C1564.37 174.452 1572.34 174.452 1577.25 178.668Z" fill="#D9D9D9"/>
<path d="M1138.8 0.160034L1254.3 17.3144C1300.98 24.277 1338.11 45.9363 1353.62 75.2381C1354.92 77.6715 1356.46 80.1 1358.21 82.4506C1376.46 106.945 1416.83 122.775 1461.08 122.775H1522.78C1567.32 122.775 1610.5 130.716 1651.09 146.369C1681.95 158.227 1710.24 174.249 1735.15 193.976C1743.8 200.79 1749.03 210.086 1749.87 220.129C1750.92 232.156 1745.55 243.792 1735.17 252.015C1710.07 271.868 1681.52 287.99 1650.29 299.934C1650.24 299.951 1650.2 299.965 1650.15 299.982C1650.11 300 1650.06 300.019 1650.01 300.037C1645.55 301.734 1641.11 303.327 1636.81 304.759C1600.29 316.994 1561.93 323.199 1522.78 323.199H1504.28C1497.33 323.199 1491.7 318.368 1491.7 312.405C1491.7 306.443 1497.33 301.612 1504.28 301.612H1522.78C1558.78 301.612 1594.07 295.904 1627.68 284.643C1629.3 284.103 1630.95 283.524 1632.6 282.94V163.041C1597.66 150.649 1560.76 144.359 1522.78 144.359L1110.67 144.359V189.168H1149.6C1156.54 189.168 1162.17 193.999 1162.17 199.961C1162.17 205.923 1156.54 210.755 1149.6 210.755L1048.17 210.755V235.22L1199.38 235.22C1207.24 235.22 1213.63 229.733 1213.63 222.988C1213.63 216.242 1207.24 210.755 1199.38 210.755H1191.52C1184.58 210.755 1178.94 205.923 1178.94 199.961C1178.94 193.999 1184.58 189.168 1191.52 189.168H1199.38C1221.11 189.168 1238.79 204.339 1238.79 222.986C1238.79 241.635 1221.11 256.805 1199.38 256.805H1110.67V301.612H1463.59C1470.54 301.612 1476.17 306.443 1476.17 312.405C1476.17 318.368 1470.54 323.199 1463.59 323.199H1461.08C1416.87 323.199 1376.49 339.029 1358.22 363.532C1356.44 365.916 1354.9 368.337 1353.63 370.752C1338.11 400.063 1300.97 421.712 1254.29 428.656L1138.8 445.84C1132.39 446.794 1126.2 443.4 1124.51 438.014L1088.46 323.199H1035.58C1028.63 323.199 1023 318.368 1023 312.405V133.565C1023 127.603 1028.63 122.771 1035.58 122.771H1088.46L1124.51 7.98419C1126.2 2.5983 1132.39 -0.792877 1138.8 0.160034ZM1657.76 272.803C1679.62 262.861 1699.87 250.58 1718.12 236.147C1722.82 232.418 1725.24 227.142 1724.78 221.695C1724.4 217.149 1722.04 212.951 1718.12 209.858C1699.84 195.382 1679.59 183.092 1657.75 173.173V272.803H1657.76ZM1114.51 323.199L1145.81 422.889L1174.25 418.654V323.199L1114.51 323.199ZM1199.4 323.199V414.912L1250 407.389C1287.9 401.75 1318.83 384.29 1330.72 361.847C1332.48 358.503 1334.6 355.154 1337.04 351.893C1345.35 340.746 1357.12 331.035 1371.27 323.199H1199.4ZM1048.15 256.808V301.614L1085.51 301.614V256.808L1048.15 256.808ZM1048.16 144.36V189.169H1085.51V144.36H1048.16ZM1114.51 122.773H1170.6C1170.62 122.773 1170.63 122.771 1170.64 122.771H1174.25V97.7893C1174.25 91.8271 1179.88 86.9956 1186.83 86.9956C1193.77 86.9956 1199.41 91.8271 1199.41 97.7893V122.771L1360.02 122.771C1360.03 122.771 1360.04 122.773 1360.05 122.773H1371.26C1357.1 114.935 1345.32 105.228 1337.01 94.0728C1334.63 90.8693 1332.52 87.5452 1330.73 84.1808C1318.83 61.7088 1287.89 44.2365 1250 38.585L1199.4 31.0703V61.8112C1199.4 67.7734 1193.77 72.6049 1186.82 72.6049C1179.88 72.6049 1174.25 67.7734 1174.25 61.8112V27.3331L1145.81 23.1097L1114.51 122.773Z" fill="#D9D9D9"/>
<path d="M391.744 235.144C391.744 235.528 391.936 235.816 392.32 236.008C392.704 236.136 393.184 236.264 393.76 236.392C394.4 236.52 395.072 236.616 395.776 236.68C396.544 236.68 397.28 236.68 397.984 236.68H400.192V241H369.184V236.68H370.048C371.84 236.68 373.344 236.488 374.56 236.104C375.776 235.656 376.384 234.728 376.384 233.32V180.52C376.384 179.176 375.776 178.28 374.56 177.832C373.344 177.384 371.84 177.16 370.048 177.16H369.184V172.84H401.44C409.568 172.84 415.904 174.568 420.448 178.024C424.992 181.48 427.264 186.312 427.264 192.52C427.264 196.744 426.176 200.424 424 203.56C421.888 206.632 418.848 209 414.88 210.664C410.976 212.328 406.336 213.16 400.96 213.16H388.576V208.072H398.368C401.376 208.072 403.872 207.496 405.856 206.344C407.84 205.192 409.344 203.496 410.368 201.256C411.392 198.952 411.904 196.104 411.904 192.712C411.904 189.32 411.392 186.568 410.368 184.456C409.408 182.28 407.936 180.68 405.952 179.656C404.032 178.568 401.664 178.024 398.848 178.024H391.744V235.144ZM469.57 241.96C464.578 241.96 459.97 241.128 455.746 239.464C451.586 237.8 447.938 235.432 444.802 232.36C441.666 229.224 439.234 225.512 437.506 221.224C435.778 216.936 434.914 212.168 434.914 206.92C434.914 201.672 435.778 196.904 437.506 192.616C439.234 188.328 441.634 184.648 444.706 181.576C447.842 178.504 451.522 176.136 455.746 174.472C459.97 172.744 464.578 171.88 469.57 171.88C474.498 171.88 479.074 172.744 483.298 174.472C487.522 176.136 491.202 178.504 494.338 181.576C497.474 184.648 499.906 188.328 501.634 192.616C503.362 196.904 504.226 201.672 504.226 206.92C504.226 212.168 503.362 216.936 501.634 221.224C499.906 225.512 497.474 229.224 494.338 232.36C491.202 235.432 487.522 237.8 483.298 239.464C479.074 241.128 474.498 241.96 469.57 241.96ZM469.57 236.584C472.386 236.584 474.914 235.944 477.154 234.664C479.458 233.384 481.41 231.496 483.01 229C484.674 226.504 485.922 223.4 486.754 219.688C487.65 215.976 488.098 211.72 488.098 206.92C488.098 202.12 487.65 197.896 486.754 194.248C485.922 190.536 484.674 187.432 483.01 184.936C481.41 182.376 479.458 180.456 477.154 179.176C474.914 177.896 472.386 177.256 469.57 177.256C466.754 177.256 464.194 177.896 461.89 179.176C459.65 180.456 457.698 182.376 456.034 184.936C454.434 187.432 453.186 190.536 452.29 194.248C451.458 197.896 451.042 202.12 451.042 206.92C451.042 211.72 451.458 215.976 452.29 219.688C453.186 223.4 454.434 226.504 456.034 229C457.698 231.496 459.65 233.384 461.89 234.664C464.194 235.944 466.754 236.584 469.57 236.584ZM538.396 236.68C541.084 236.68 543.388 236.296 545.308 235.528C547.292 234.76 548.796 233.576 549.82 231.976C550.908 230.376 551.452 228.296 551.452 225.736C551.452 223.688 550.972 221.992 550.012 220.648C549.116 219.24 547.836 218.088 546.172 217.192C544.508 216.232 542.524 215.368 540.22 214.6C537.916 213.832 535.452 213.032 532.828 212.2C530.332 211.496 527.9 210.632 525.532 209.608C523.164 208.52 521.02 207.208 519.1 205.672C517.18 204.072 515.644 202.088 514.492 199.72C513.404 197.352 512.86 194.472 512.86 191.08C512.86 187.048 513.852 183.624 515.836 180.808C517.884 177.928 520.572 175.72 523.9 174.184C527.228 172.648 530.908 171.88 534.94 171.88C538.588 171.88 541.756 172.392 544.444 173.416C547.132 174.44 549.436 175.976 551.356 178.024C553.276 180.072 554.844 182.696 556.06 185.896L552.22 184.36L553.66 172.84H558.748V190.6H553.372C552.54 187.784 551.292 185.384 549.628 183.4C548.028 181.352 546.108 179.816 543.868 178.792C541.692 177.704 539.228 177.16 536.476 177.16C533.98 177.16 531.868 177.544 530.14 178.312C528.412 179.08 527.1 180.168 526.204 181.576C525.308 182.984 524.86 184.68 524.86 186.664C524.86 188.648 525.308 190.312 526.204 191.656C527.164 192.936 528.444 194.024 530.044 194.92C531.644 195.816 533.5 196.616 535.612 197.32C537.724 197.96 539.996 198.6 542.428 199.24C545.18 200.008 547.804 200.904 550.3 201.928C552.86 202.888 555.164 204.168 557.212 205.768C559.26 207.304 560.86 209.256 562.012 211.624C563.164 213.992 563.74 216.904 563.74 220.36C563.74 224.776 562.716 228.616 560.668 231.88C558.62 235.08 555.772 237.576 552.124 239.368C548.476 241.096 544.252 241.96 539.452 241.96C535.676 241.96 532.124 241.416 528.796 240.328C525.532 239.176 522.652 237.384 520.156 234.952C517.724 232.52 515.836 229.352 514.492 225.448L518.236 227.752L516.892 241L511.516 241V219.976L517.18 219.976C518.332 223.624 519.932 226.696 521.98 229.192C524.028 231.688 526.428 233.576 529.18 234.856C531.996 236.072 535.068 236.68 538.396 236.68ZM589.723 233.32V177.928H584.635C582.267 177.928 580.347 178.056 578.875 178.312C577.403 178.568 576.315 179.048 575.611 179.752C574.907 180.392 574.459 181.32 574.267 182.536L572.731 192.904H567.739V172.84L626.971 172.84V192.904H621.979L620.443 182.536C620.315 181.32 619.867 180.392 619.099 179.752C618.395 179.048 617.307 178.568 615.835 178.312C614.363 178.056 612.443 177.928 610.075 177.928H604.987V233.32C604.987 234.728 605.595 235.656 606.811 236.104C608.091 236.488 609.595 236.68 611.323 236.68H612.859V241H581.851V236.68H583.387C585.179 236.68 586.683 236.488 587.899 236.104C589.115 235.656 589.723 234.728 589.723 233.32ZM686.026 209.8L700.33 207.688L713.386 233.896C713.77 234.728 714.218 235.368 714.73 235.816C715.306 236.2 715.946 236.456 716.65 236.584C717.354 236.648 718.154 236.68 719.05 236.68H719.53V241H700.042L686.026 209.8ZM677.866 235.72C677.866 235.912 678.058 236.072 678.442 236.2C678.826 236.264 679.306 236.36 679.882 236.488C680.458 236.552 681.098 236.616 681.802 236.68C682.506 236.68 683.21 236.68 683.914 236.68H684.97V241H655.306V236.68H656.17C657.962 236.68 659.466 236.488 660.682 236.104C661.962 235.656 662.602 234.728 662.602 233.32V180.52C662.602 179.112 661.962 178.216 660.682 177.832C659.466 177.384 657.962 177.16 656.17 177.16H655.306V172.84H687.658C693.098 172.84 697.738 173.64 701.578 175.24C705.418 176.84 708.362 179.08 710.41 181.96C712.458 184.776 713.482 188.104 713.482 191.944C713.482 195.592 712.554 198.792 710.698 201.544C708.842 204.296 706.186 206.504 702.73 208.168C699.274 209.832 695.082 210.824 690.154 211.144C689.77 211.208 689.322 211.272 688.81 211.336C688.362 211.336 687.882 211.368 687.37 211.432C686.922 211.432 686.442 211.432 685.93 211.432H675.466V206.536H684.97C687.978 206.536 690.378 205.992 692.17 204.904C694.026 203.752 695.402 202.088 696.298 199.912C697.194 197.736 697.642 195.048 697.642 191.848C697.642 188.84 697.194 186.312 696.298 184.264C695.402 182.152 694.026 180.584 692.17 179.56C690.378 178.472 688.138 177.928 685.45 177.928H677.866V235.72ZM737.215 216.52C737.215 219.848 737.535 222.792 738.175 225.352C738.815 227.848 739.743 229.928 740.959 231.592C742.239 233.256 743.775 234.536 745.567 235.432C747.423 236.264 749.503 236.68 751.807 236.68C754.239 236.68 756.383 236.232 758.239 235.336C760.095 234.44 761.695 233.256 763.039 231.784C764.447 230.248 765.599 228.648 766.495 226.984L770.623 230.056C769.407 232.424 767.807 234.504 765.823 236.296C763.903 238.088 761.599 239.496 758.911 240.52C756.287 241.48 753.215 241.96 749.695 241.96C744.383 241.96 739.679 240.936 735.583 238.888C731.551 236.776 728.383 233.8 726.079 229.96C723.775 226.12 722.623 221.608 722.623 216.424C722.623 211.24 723.711 206.696 725.887 202.792C728.127 198.888 731.167 195.848 735.007 193.672C738.847 191.496 743.167 190.408 747.967 190.408C751.743 190.408 755.071 190.984 757.951 192.136C760.831 193.288 763.263 194.984 765.247 197.224C767.231 199.4 768.735 202.152 769.759 205.48C770.847 208.744 771.391 212.552 771.391 216.904L732.607 216.904L732.511 212.2H759.967L757.663 213.736C757.599 210.408 757.375 207.592 756.991 205.288C756.607 202.92 756.031 201.032 755.263 199.624C754.495 198.152 753.503 197.096 752.287 196.456C751.135 195.752 749.791 195.4 748.255 195.4C746.591 195.4 745.087 195.816 743.743 196.648C742.399 197.48 741.247 198.76 740.287 200.488C739.327 202.216 738.559 204.424 737.983 207.112C737.471 209.736 737.215 212.872 737.215 216.52ZM808.171 262.408V258.28H809.419C810.251 258.28 811.147 258.248 812.107 258.184C813.067 258.12 813.899 258.024 814.603 257.896C815.371 257.768 815.755 257.608 815.755 257.416V202.024L816.619 201.16L821.707 191.08H830.251V255.208C830.251 256.424 830.827 257.224 831.979 257.608C833.131 258.056 834.507 258.28 836.107 258.28H836.299V262.408H808.171ZM801.163 190.408C804.235 190.408 806.923 190.92 809.227 191.944C811.595 192.904 813.675 194.408 815.467 196.456C817.323 198.504 818.955 201.096 820.363 204.232L818.251 209.32C817.099 206.44 815.851 204.072 814.507 202.216C813.163 200.36 811.659 198.984 809.995 198.088C808.395 197.128 806.603 196.648 804.619 196.648C802.699 196.648 801.003 197.096 799.531 197.992C798.123 198.888 796.939 200.2 795.979 201.928C795.019 203.656 794.283 205.768 793.771 208.264C793.323 210.76 793.099 213.576 793.099 216.712C793.099 219.72 793.323 222.408 793.771 224.776C794.283 227.144 794.987 229.128 795.883 230.728C796.843 232.328 797.995 233.544 799.339 234.376C800.683 235.144 802.219 235.528 803.947 235.528C806.059 235.528 807.915 235.016 809.515 233.992C811.179 232.904 812.715 231.368 814.123 229.384C815.531 227.336 816.875 224.776 818.155 221.704L819.883 226.504C818.219 229.96 816.459 232.84 814.603 235.144C812.811 237.448 810.763 239.176 808.459 240.328C806.155 241.416 803.371 241.96 800.107 241.96C795.755 241.96 791.915 240.936 788.587 238.888C785.323 236.776 782.763 233.832 780.907 230.056C779.051 226.28 778.123 221.832 778.123 216.712C778.123 211.528 779.083 206.984 781.003 203.08C782.987 199.112 785.707 196.008 789.163 193.768C792.683 191.528 796.683 190.408 801.163 190.408ZM859.564 191.368V226.216C859.564 228.328 859.788 230.024 860.236 231.304C860.684 232.584 861.356 233.544 862.252 234.184C863.212 234.76 864.428 235.048 865.9 235.048C867.564 235.048 869.1 234.632 870.508 233.8C871.98 232.968 873.388 231.784 874.732 230.248C876.076 228.648 877.324 226.664 878.476 224.296L879.724 228.904C878.252 231.72 876.588 234.12 874.732 236.104C872.876 238.024 870.796 239.496 868.492 240.52C866.188 241.48 863.596 241.96 860.716 241.96C857.58 241.96 854.828 241.352 852.46 240.136C850.092 238.92 848.268 237.096 846.988 234.664C845.708 232.232 845.068 229.256 845.068 225.736V199.336C845.068 198.184 844.684 197.384 843.916 196.936C843.148 196.488 841.868 196.104 840.076 195.784L839.02 195.592V191.368H859.564ZM891.532 191.368V233.704C891.532 234.472 891.756 235.08 892.204 235.528C892.652 235.912 893.292 236.2 894.124 236.392C894.956 236.584 895.948 236.712 897.1 236.776H897.58V241H877.996V230.44L877.036 230.248V199.336C877.036 198.184 876.524 197.384 875.5 196.936C874.54 196.424 873.164 196.072 871.372 195.88L869.644 195.592V191.368H891.532ZM916.934 216.52C916.934 219.848 917.254 222.792 917.894 225.352C918.534 227.848 919.462 229.928 920.678 231.592C921.958 233.256 923.494 234.536 925.286 235.432C927.142 236.264 929.222 236.68 931.526 236.68C933.958 236.68 936.102 236.232 937.958 235.336C939.814 234.44 941.414 233.256 942.758 231.784C944.166 230.248 945.318 228.648 946.214 226.984L950.342 230.056C949.126 232.424 947.526 234.504 945.542 236.296C943.622 238.088 941.318 239.496 938.63 240.52C936.006 241.48 932.934 241.96 929.414 241.96C924.102 241.96 919.398 240.936 915.302 238.888C911.27 236.776 908.102 233.8 905.798 229.96C903.494 226.12 902.342 221.608 902.342 216.424C902.342 211.24 903.43 206.696 905.606 202.792C907.846 198.888 910.886 195.848 914.726 193.672C918.566 191.496 922.886 190.408 927.686 190.408C931.462 190.408 934.79 190.984 937.67 192.136C940.55 193.288 942.982 194.984 944.966 197.224C946.95 199.4 948.454 202.152 949.478 205.48C950.566 208.744 951.11 212.552 951.11 216.904H912.326L912.23 212.2H939.686L937.382 213.736C937.318 210.408 937.094 207.592 936.71 205.288C936.326 202.92 935.75 201.032 934.982 199.624C934.214 198.152 933.222 197.096 932.006 196.456C930.854 195.752 929.51 195.4 927.974 195.4C926.31 195.4 924.806 195.816 923.462 196.648C922.118 197.48 920.966 198.76 920.006 200.488C919.046 202.216 918.278 204.424 917.702 207.112C917.19 209.736 916.934 212.872 916.934 216.52ZM987.607 229.576C987.607 228.296 987.287 227.24 986.647 226.408C986.007 225.576 985.111 224.872 983.959 224.296C982.871 223.72 981.559 223.208 980.023 222.76C978.551 222.248 976.919 221.736 975.127 221.224C973.271 220.712 971.351 220.104 969.367 219.4C967.447 218.696 965.655 217.768 963.991 216.616C962.391 215.464 961.111 213.992 960.151 212.2C959.191 210.408 958.711 208.136 958.711 205.384C958.711 202.248 959.543 199.56 961.207 197.32C962.871 195.08 965.207 193.384 968.215 192.232C971.223 191.016 974.775 190.408 978.871 190.408C982.071 190.408 984.855 190.664 987.223 191.176C989.655 191.688 991.639 192.296 993.175 193C994.711 193.704 995.799 194.312 996.439 194.824V204.328H986.167V194.824C986.807 194.824 987.351 194.984 987.799 195.304C988.247 195.56 988.567 195.912 988.759 196.36C989.015 196.808 989.143 197.288 989.143 197.8C989.143 198.248 989.079 198.632 988.951 198.952C988.311 198.184 987.511 197.544 986.551 197.032C985.591 196.456 984.503 196.008 983.287 195.688C982.071 195.368 980.663 195.208 979.063 195.208C975.991 195.208 973.719 195.848 972.247 197.128C970.775 198.408 970.039 200.04 970.039 202.024C970.039 203.368 970.391 204.488 971.095 205.384C971.799 206.28 972.727 207.048 973.879 207.688C975.095 208.264 976.471 208.776 978.007 209.224C979.607 209.672 981.303 210.152 983.095 210.664C985.079 211.176 987.031 211.816 988.951 212.584C990.935 213.288 992.727 214.184 994.327 215.272C995.991 216.36 997.303 217.768 998.263 219.496C999.287 221.16 999.799 223.24 999.799 225.736C999.799 229.064 998.935 231.944 997.207 234.376C995.479 236.808 992.983 238.696 989.719 240.04C986.455 241.32 982.455 241.96 977.719 241.96C974.327 241.96 971.287 241.672 968.599 241.096C965.975 240.52 963.703 239.816 961.783 238.984C959.863 238.152 958.295 237.352 957.079 236.584V226.216H967.831V237.832C967.127 237.448 966.519 237.032 966.007 236.584C965.559 236.072 965.239 235.592 965.047 235.144C964.855 234.696 964.791 234.28 964.855 233.896C964.919 233.448 965.079 233.032 965.335 232.648C966.231 233.672 967.287 234.504 968.503 235.144C969.719 235.784 971.095 236.296 972.631 236.68C974.167 237 975.799 237.16 977.527 237.16C979.703 237.16 981.527 236.872 982.999 236.296C984.471 235.656 985.591 234.792 986.359 233.704C987.191 232.552 987.607 231.176 987.607 229.576ZM1003.16 196.168V191.848H1003.45C1005.11 191.848 1006.52 191.688 1007.67 191.368C1008.89 191.048 1009.81 190.504 1010.45 189.736C1011.09 188.968 1011.48 187.912 1011.61 186.568L1016.98 191.368H1036.95V196.168H1003.16ZM1024.57 226.408C1024.57 228.904 1024.85 230.888 1025.43 232.36C1026.01 233.832 1026.84 234.888 1027.93 235.528C1029.01 236.104 1030.33 236.392 1031.86 236.392C1033.14 236.392 1034.33 236.232 1035.41 235.912C1036.57 235.592 1037.37 235.368 1037.81 235.24V240.232C1037.24 240.552 1036.47 240.84 1035.51 241.096C1034.61 241.352 1033.56 241.544 1032.34 241.672C1031.13 241.864 1029.78 241.96 1028.31 241.96C1024.85 241.96 1021.75 241.448 1019 240.424C1016.25 239.4 1014.07 237.672 1012.47 235.24C1010.87 232.808 1010.07 229.544 1010.07 225.448V192.52L1011.22 191.752L1012.09 178.408H1024.57V226.408Z" fill="#101010" fill-opacity="0.51"/>
<path d="M235.758 306.662C234.623 305.053 233.328 303.896 231.881 303.185C230.434 302.474 228.908 302.121 227.3 302.121C225.652 302.121 224.083 302.448 222.587 303.112C221.091 303.776 219.756 304.897 218.578 306.48C217.4 308.063 216.471 310.108 215.806 312.62C215.136 315.126 214.779 318.198 214.735 321.842C214.779 325.391 215.126 328.417 215.772 330.923C216.417 333.43 217.307 335.475 218.446 337.063C219.585 338.651 220.876 339.803 222.323 340.54C223.77 341.277 225.295 341.64 226.904 341.64C228.551 341.64 230.121 341.298 231.617 340.613C233.113 339.927 234.447 338.801 235.626 337.244C236.804 335.688 237.733 333.638 238.398 331.105C239.062 328.573 239.424 325.49 239.468 321.847C239.424 318.297 239.077 315.282 238.432 312.801C237.786 310.321 236.897 308.271 235.758 306.662Z" fill="#4B4B4B"/>
<path d="M323 270.397V140.541C323 136.566 322.55 133.623 320.311 131.241L263.419 70.8543C261.713 69.0431 259.347 68 256.927 68H115.041C109.243 68 103 72.7537 103 83.1849V270.397H323ZM215.444 239.259C215.444 242.123 213.259 244.448 210.556 244.448C207.852 244.448 205.667 242.123 205.667 239.259V223.69C205.667 220.825 207.852 218.5 210.556 218.5C213.259 218.5 215.444 220.825 215.444 223.69V239.259ZM254.556 85.5981C254.556 83.2213 257.259 82.0328 258.843 83.7143L308.196 136.104C309.78 137.785 308.661 140.655 306.422 140.655H254.556V85.5981ZM249.667 192.552V171.793C249.667 168.934 247.476 166.603 244.778 166.603C242.074 166.603 239.889 164.279 239.889 161.414C239.889 158.549 242.074 156.224 244.778 156.224C252.864 156.224 259.444 163.209 259.444 171.793V192.552C259.444 198.276 263.83 202.931 269.222 202.931C271.926 202.931 274.111 205.256 274.111 208.121C274.111 210.985 271.926 213.31 269.222 213.31C263.83 213.31 259.444 217.966 259.444 223.69V244.448C259.444 253.032 252.864 260.017 244.778 260.017C242.074 260.017 239.889 257.692 239.889 254.828C239.889 251.963 242.074 249.638 244.778 249.638C247.476 249.638 249.667 247.308 249.667 244.448V223.69C249.667 217.462 252.316 211.93 256.423 208.121C252.316 204.312 249.667 198.779 249.667 192.552ZM210.556 182.172C214.604 182.172 217.889 185.66 217.889 189.957C217.889 194.254 214.604 197.741 210.556 197.741C206.508 197.741 203.222 194.254 203.222 189.957C203.222 185.66 206.508 182.172 210.556 182.172ZM151.889 202.931C157.281 202.931 161.667 198.276 161.667 192.552V171.793C161.667 163.209 168.247 156.224 176.333 156.224C179.037 156.224 181.222 158.549 181.222 161.414C181.222 164.279 179.037 166.603 176.333 166.603C173.635 166.603 171.444 168.934 171.444 171.793V192.552C171.444 198.779 168.795 204.312 164.688 208.121C168.795 211.93 171.444 217.462 171.444 223.69V244.448C171.444 247.308 173.635 249.638 176.333 249.638C179.037 249.638 181.222 251.963 181.222 254.828C181.222 257.692 179.037 260.017 176.333 260.017C168.247 260.017 161.667 253.032 161.667 244.448V223.69C161.667 217.966 157.281 213.31 151.889 213.31C149.185 213.31 147 210.985 147 208.121C147 205.256 149.185 202.931 151.889 202.931Z" fill="#4B4B4B"/>
<path d="M103 280.776V358.621C103 363.857 108.964 369 115.041 369H310.959C317.036 369 323 363.857 323 358.621V280.776H103ZM159.325 335.61C159.325 338.07 158.9 340.14 158.054 341.817C157.208 343.493 156.074 344.842 154.646 345.859C153.219 346.877 151.581 347.588 149.733 347.987C147.885 348.387 145.978 348.589 144.018 348.589C143.04 348.589 141.886 348.48 140.576 348.267C139.266 348.055 137.902 347.728 136.499 347.276C135.096 346.825 133.746 346.316 132.456 345.75C131.165 345.185 130.075 344.546 129.18 343.835L132.588 338.09C133.032 338.417 133.668 338.765 134.494 339.118C135.32 339.471 136.225 339.803 137.203 340.109C138.18 340.415 139.207 340.685 140.278 340.924C141.348 341.163 142.351 341.277 143.284 341.277C145.646 341.277 147.528 340.789 148.931 339.824C150.334 338.858 151.077 337.208 151.17 334.894V294.876H159.325V335.61ZM198.128 339.409C197.395 341.183 196.358 342.746 195.019 344.09C193.679 345.434 192.036 346.513 190.071 347.318C188.106 348.122 185.886 348.522 183.388 348.522C182.317 348.522 181.217 348.459 180.078 348.345C178.939 348.231 177.795 348.023 176.636 347.743C175.478 347.458 174.373 347.069 173.327 346.57C172.28 346.072 171.381 345.47 170.618 344.759L172.021 338.656C172.647 339.035 173.434 339.403 174.392 339.756C175.351 340.109 176.338 340.441 177.365 340.748C178.392 341.054 179.413 341.303 180.44 341.495C181.467 341.687 182.42 341.78 183.315 341.78C186.033 341.78 188.116 341.106 189.563 339.756C191.01 338.407 191.733 336.409 191.733 333.762C191.733 332.153 191.225 330.783 190.198 329.647C189.172 328.51 187.891 327.483 186.356 326.559C184.82 325.635 183.158 324.717 181.374 323.793C179.589 322.869 177.922 321.779 176.363 320.529C174.803 319.278 173.512 317.799 172.486 316.097C171.459 314.394 170.951 312.267 170.951 309.713C170.951 307.399 171.352 305.339 172.153 303.543C172.955 301.747 174.036 300.216 175.395 298.966C176.754 297.715 178.338 296.755 180.142 296.091C181.946 295.426 183.852 295.099 185.857 295.099C187.905 295.099 189.978 295.302 192.071 295.701C194.163 296.101 195.855 296.755 197.15 297.653C196.881 298.265 196.573 298.94 196.216 299.677C195.86 300.414 195.522 301.093 195.214 301.732C194.906 302.37 194.637 302.905 194.412 303.33C194.188 303.756 194.056 303.994 194.012 304.041C193.743 303.901 193.444 303.714 193.107 303.475C192.77 303.237 192.296 303.003 191.67 302.764C191.044 302.526 190.223 302.365 189.196 302.266C188.169 302.168 186.854 302.194 185.251 302.339C184.356 302.437 183.515 302.702 182.708 303.154C181.902 303.605 181.193 304.155 180.567 304.82C179.941 305.484 179.452 306.226 179.096 307.056C178.739 307.887 178.563 308.681 178.563 309.433C178.563 311.322 179.071 312.848 180.098 314.01C181.124 315.173 182.396 316.185 183.906 317.062C185.417 317.939 187.069 318.79 188.854 319.615C190.638 320.44 192.296 321.452 193.836 322.63C195.376 323.808 196.652 325.293 197.678 327.062C198.705 328.832 199.213 331.116 199.213 333.908C199.233 335.802 198.861 337.634 198.128 339.409ZM246.054 333.482C245.008 336.84 243.556 339.632 241.708 341.853C239.86 344.074 237.699 345.756 235.225 346.892C232.751 348.029 230.043 348.594 227.104 348.594C224.166 348.594 221.458 348.029 218.984 346.892C216.51 345.756 214.349 344.079 212.501 341.853C210.653 339.627 209.201 336.84 208.155 333.482C207.109 330.124 206.586 326.242 206.586 321.847C206.586 317.451 207.109 313.58 208.155 310.248C209.201 306.916 210.653 304.135 212.501 301.913C214.349 299.692 216.51 298 218.984 296.838C221.458 295.675 224.166 295.099 227.104 295.099C230.043 295.099 232.751 295.675 235.225 296.838C237.699 298 239.86 299.687 241.708 301.913C243.556 304.14 245.008 306.916 246.054 310.248C247.1 313.58 247.623 317.451 247.623 321.847C247.623 326.242 247.1 330.124 246.054 333.482ZM294.547 348.241H286.392L267.076 312.199V348.241H258.921V295.95H267.076L286.392 331.993V295.95H294.547V348.241Z" fill="#4B4B4B"/>
<path d="M1295.69 207.592H1322.7V211.56H1295.69V207.592ZM1285.58 233V229.672H1286.16C1287.4 229.672 1288.42 229.523 1289.23 229.224C1290.08 228.925 1290.51 228.328 1290.51 227.432V193.128C1290.51 192.232 1290.08 191.635 1289.23 191.336C1288.42 191.037 1287.4 190.888 1286.16 190.888H1285.58V187.56H1305.61V190.888H1305.04C1304.57 190.888 1304.08 190.909 1303.57 190.952C1303.05 190.952 1302.58 190.995 1302.16 191.08C1301.73 191.123 1301.37 191.187 1301.07 191.272C1300.81 191.315 1300.69 191.379 1300.69 191.464V229.096C1300.69 229.181 1300.81 229.267 1301.07 229.352C1301.37 229.395 1301.73 229.459 1302.16 229.544C1302.58 229.587 1303.05 229.629 1303.57 229.672C1304.08 229.672 1304.57 229.672 1305.04 229.672H1305.61V233H1285.58ZM1313.68 233V229.672H1314.25C1314.72 229.672 1315.21 229.672 1315.73 229.672C1316.24 229.629 1316.71 229.587 1317.13 229.544C1317.56 229.459 1317.9 229.395 1318.16 229.352C1318.41 229.267 1318.54 229.181 1318.54 229.096V191.464C1318.54 191.379 1318.41 191.315 1318.16 191.272C1317.9 191.187 1317.56 191.123 1317.13 191.08C1316.71 190.995 1316.24 190.952 1315.73 190.952C1315.21 190.909 1314.72 190.888 1314.25 190.888H1313.68V187.56H1333.71V190.888H1333.07C1331.88 190.888 1330.85 191.037 1330 191.336C1329.19 191.635 1328.78 192.232 1328.78 193.128V227.432C1328.78 228.328 1329.19 228.925 1330 229.224C1330.85 229.523 1331.88 229.672 1333.07 229.672H1333.71V233H1313.68ZM1352.8 227.432V191.464H1349.86C1348.24 191.464 1346.91 191.549 1345.89 191.72C1344.91 191.848 1344.16 192.125 1343.65 192.552C1343.14 192.979 1342.84 193.576 1342.75 194.344L1341.92 201.192H1337.89V187.56H1377.95V201.192H1373.92L1373.15 194.344C1373.07 193.576 1372.77 192.979 1372.26 192.552C1371.75 192.125 1370.98 191.848 1369.95 191.72C1368.97 191.549 1367.67 191.464 1366.05 191.464H1363.04V227.432C1363.04 228.371 1363.45 228.989 1364.26 229.288C1365.07 229.544 1366.09 229.672 1367.33 229.672H1368.29V233H1347.55V229.672H1348.58C1349.77 229.672 1350.78 229.544 1351.59 229.288C1352.4 228.989 1352.8 228.371 1352.8 227.432ZM1397.55 227.432V191.464H1394.61C1392.99 191.464 1391.66 191.549 1390.64 191.72C1389.66 191.848 1388.91 192.125 1388.4 192.552C1387.89 192.979 1387.59 193.576 1387.5 194.344L1386.67 201.192H1382.64V187.56H1422.7V201.192H1418.67L1417.9 194.344C1417.82 193.576 1417.52 192.979 1417.01 192.552C1416.5 192.125 1415.73 191.848 1414.7 191.72C1413.72 191.549 1412.42 191.464 1410.8 191.464H1407.79V227.432C1407.79 228.371 1408.2 228.989 1409.01 229.288C1409.82 229.544 1410.84 229.672 1412.08 229.672H1413.04V233H1392.3V229.672H1393.33C1394.52 229.672 1395.53 229.544 1396.34 229.288C1397.15 228.989 1397.55 228.371 1397.55 227.432ZM1442.13 228.84C1442.13 229.011 1442.25 229.16 1442.51 229.288C1442.77 229.373 1443.09 229.459 1443.47 229.544C1443.9 229.587 1444.34 229.629 1444.81 229.672C1445.28 229.672 1445.75 229.672 1446.22 229.672H1447.76V233H1427.02V229.672H1427.66C1428.86 229.672 1429.86 229.544 1430.67 229.288C1431.52 228.989 1431.95 228.371 1431.95 227.432V193.128C1431.95 192.232 1431.52 191.635 1430.67 191.336C1429.86 191.037 1428.86 190.888 1427.66 190.888H1427.02V187.56H1448.65C1454.16 187.56 1458.42 188.733 1461.45 191.08C1464.48 193.427 1466 196.691 1466 200.872C1466 203.688 1465.27 206.141 1463.82 208.232C1462.41 210.323 1460.39 211.944 1457.74 213.096C1455.1 214.248 1451.98 214.824 1448.4 214.824H1440.14V210.92H1446.67C1448.63 210.92 1450.27 210.536 1451.6 209.768C1452.96 209 1453.99 207.891 1454.67 206.44C1455.35 204.947 1455.69 203.133 1455.69 201C1455.69 198.867 1455.35 197.096 1454.67 195.688C1454.03 194.28 1453.05 193.235 1451.73 192.552C1450.45 191.869 1448.85 191.528 1446.93 191.528H1442.13V228.84ZM1488.71 229.544C1490.41 229.544 1491.89 229.309 1493.12 228.84C1494.4 228.371 1495.36 227.624 1496 226.6C1496.69 225.576 1497.03 224.253 1497.03 222.632C1497.03 221.309 1496.71 220.2 1496.07 219.304C1495.47 218.365 1494.62 217.597 1493.51 217C1492.44 216.36 1491.16 215.805 1489.67 215.336C1488.17 214.824 1486.57 214.312 1484.87 213.8C1483.2 213.331 1481.56 212.755 1479.94 212.072C1478.36 211.389 1476.93 210.515 1475.65 209.448C1474.37 208.381 1473.35 207.08 1472.58 205.544C1471.81 203.965 1471.43 202.024 1471.43 199.72C1471.43 197.032 1472.09 194.749 1473.41 192.872C1474.78 190.952 1476.57 189.48 1478.79 188.456C1481.01 187.432 1483.46 186.92 1486.15 186.92C1488.45 186.92 1490.5 187.24 1492.29 187.88C1494.08 188.52 1495.64 189.544 1496.96 190.952C1498.29 192.36 1499.37 194.216 1500.23 196.52L1497.48 195.88L1498.5 187.56H1502.34V199.464H1498.12C1497.56 197.672 1496.75 196.157 1495.68 194.92C1494.62 193.64 1493.36 192.659 1491.91 191.976C1490.5 191.293 1488.94 190.952 1487.24 190.952C1485.61 190.952 1484.23 191.208 1483.08 191.72C1481.97 192.189 1481.11 192.893 1480.52 193.832C1479.96 194.728 1479.68 195.816 1479.68 197.096C1479.68 198.376 1479.98 199.443 1480.58 200.296C1481.22 201.107 1482.07 201.811 1483.14 202.408C1484.21 202.963 1485.42 203.453 1486.79 203.88C1488.2 204.307 1489.69 204.733 1491.27 205.16C1493.1 205.629 1494.85 206.205 1496.52 206.888C1498.22 207.571 1499.76 208.445 1501.12 209.512C1502.49 210.536 1503.56 211.837 1504.32 213.416C1505.13 214.995 1505.54 216.936 1505.54 219.24C1505.54 222.184 1504.86 224.744 1503.49 226.92C1502.13 229.053 1500.23 230.717 1497.8 231.912C1495.41 233.064 1492.61 233.64 1489.41 233.64C1486.89 233.64 1484.53 233.256 1482.31 232.488C1480.13 231.72 1478.19 230.504 1476.48 228.84C1474.82 227.176 1473.5 224.979 1472.52 222.248L1475.4 223.336L1474.37 233H1470.34V218.92H1474.82C1475.59 221.181 1476.63 223.123 1477.96 224.744C1479.32 226.323 1480.92 227.517 1482.76 228.328C1484.59 229.139 1486.57 229.544 1488.71 229.544Z" fill="#101010" fill-opacity="0.51"/>
</svg>
