<svg width="118" height="118" viewBox="0 0 118 118" fill="none" xmlns="http://www.w3.org/2000/svg">
<path d="M112.761 0H5.2396C2.35035 0 0 2.35015 0 5.23881V112.761C0 115.65 2.35042 118 5.2396 118H112.761C115.65 118 118 115.65 118 112.761V5.23881C118 2.35015 115.65 0 112.761 0ZM5.2396 4.14359H112.761C113.365 4.14359 113.856 4.63501 113.856 5.23881V18.0968H4.1436V5.23881C4.1436 4.63501 4.63528 4.14359 5.2396 4.14359ZM112.761 113.856H5.2396C4.63528 113.856 4.1436 113.365 4.1436 112.761V22.2403H113.856V112.761C113.856 113.365 113.365 113.856 112.761 113.856Z" fill="#6B7280"/>
<path d="M99.5008 75.3178H21.5942C18.4934 75.3178 15.9707 77.8405 15.9707 80.9413V101.659C15.9707 104.76 18.4934 107.283 21.5942 107.283H99.5007C102.602 107.283 105.124 104.76 105.124 101.659V80.9413C105.124 77.8405 102.602 75.3178 99.5008 75.3178ZM100.981 101.659C100.981 102.475 100.317 103.139 99.5008 103.139H21.5942C20.7782 103.139 20.1144 102.475 20.1144 101.659V80.9412C20.1144 80.125 20.7783 79.4613 21.5942 79.4613H99.5007C100.317 79.4613 100.981 80.125 100.981 80.9412L100.981 101.659Z" fill="#6B7280"/>
<path d="M21.5942 59.7302H41.6878C44.7886 59.7302 47.3113 57.2074 47.3113 54.1066V34.013C47.3113 30.9122 44.7886 28.3896 41.6878 28.3896H21.5942C18.4934 28.3896 15.9707 30.9122 15.9707 34.013V54.1066C15.9708 57.2074 18.4934 59.7302 21.5942 59.7302ZM20.1144 34.013C20.1144 33.1971 20.7783 32.5332 21.5942 32.5332H41.6878C42.5038 32.5332 43.1677 33.1971 43.1677 34.013V54.1066C43.1677 54.9225 42.5038 55.5865 41.6878 55.5865H21.5942C20.7782 55.5865 20.1144 54.9225 20.1144 54.1066V34.013Z" fill="#6B7280"/>
<path d="M103.052 65.1559H18.0425C16.8982 65.1559 15.9707 66.0837 15.9707 67.2277C15.9707 68.3723 16.8982 69.2995 18.0425 69.2995H103.052C104.197 69.2995 105.124 68.3723 105.124 67.2277C105.124 66.0837 104.197 65.1559 103.052 65.1559Z" fill="#6B7280"/>
<path d="M103.052 54.3531H56.0919C54.9475 54.3531 54.02 55.2807 54.02 56.425C54.02 57.5693 54.9475 58.4967 56.0919 58.4967H103.052C104.197 58.4967 105.124 57.5693 105.124 56.425C105.124 55.2807 104.197 54.3531 103.052 54.3531Z" fill="#6B7280"/>
<path d="M103.052 41.9224H56.0919C54.9475 41.9224 54.02 42.85 54.02 43.9942C54.02 45.1385 54.9475 46.066 56.0919 46.066H103.052C104.197 46.066 105.124 45.1385 105.124 43.9942C105.124 42.85 104.197 41.9224 103.052 41.9224Z" fill="#6B7280"/>
<path d="M103.052 29.4915H56.0919C54.9475 29.4915 54.02 30.419 54.02 31.5634C54.02 32.7076 54.9475 33.6351 56.0919 33.6351H103.052C104.197 33.6351 105.124 32.7076 105.124 31.5634C105.124 30.4191 104.197 29.4915 103.052 29.4915Z" fill="#6B7280"/>
<path d="M13.109 14.2491C14.9479 14.2491 16.4387 12.7584 16.4387 10.9194C16.4387 9.08048 14.9479 7.58972 13.109 7.58972C11.2701 7.58972 9.7793 9.08048 9.7793 10.9194C9.7793 12.7584 11.2701 14.2491 13.109 14.2491Z" fill="#6B7280"/>
<path d="M23.6158 14.2491C25.4548 14.2491 26.9455 12.7584 26.9455 10.9194C26.9455 9.08048 25.4548 7.58972 23.6158 7.58972C21.7769 7.58972 20.2861 9.08048 20.2861 10.9194C20.2861 12.7584 21.7769 14.2491 23.6158 14.2491Z" fill="#6B7280"/>
<path d="M34.1227 14.2491C35.9616 14.2491 37.4524 12.7584 37.4524 10.9194C37.4524 9.08048 35.9616 7.58972 34.1227 7.58972C32.2837 7.58972 30.793 9.08048 30.793 10.9194C30.793 12.7584 32.2837 14.2491 34.1227 14.2491Z" fill="#6B7280"/>
</svg>
