<svg width="442" height="237" viewBox="0 0 442 237" fill="none" xmlns="http://www.w3.org/2000/svg">
<path fill-rule="evenodd" clip-rule="evenodd" d="M126.309 2.36786C146.127 0.363707 166.135 0.363707 185.952 2.36786L206.227 4.41821C209.131 4.7119 211.722 6.17316 213.259 8.38248C214.794 10.5919 215.104 13.3053 214.099 15.7439L186.108 83.681H216.042C219.168 83.681 222.096 85.0435 223.876 87.3278C225.657 89.611 226.063 92.5254 224.964 95.127L222.545 100.854C205.754 140.589 182.015 177.723 152.204 210.887L147.239 216.411C144.712 219.221 140.461 220.308 136.64 219.117C132.819 217.928 130.26 214.723 130.26 211.125V130.363H107.113C102.176 130.363 98.0555 127.012 97.619 122.643L96.0607 107.04C93.4239 80.6404 93.4239 54.0857 96.0607 27.6866L97.619 12.084C98.0193 8.07704 101.537 4.87315 106.035 4.41821L126.309 2.36786ZM183.797 19.1967C165.412 17.3374 146.85 17.3374 128.465 19.1967L115.919 20.4655L115.049 29.1838C112.511 54.5867 112.511 80.1394 115.049 105.542L115.836 113.425H139.792C145.055 113.425 149.323 117.217 149.323 121.894V186.309C170.954 159.861 188.733 131.069 202.224 100.618H172.47C169.358 100.618 166.441 99.2676 164.658 97.0003C162.874 94.734 162.449 91.8355 163.519 89.2384L192.033 20.0297L183.797 19.1967Z" fill="#4B4B4B"/>
<path d="M26.25 191H7.64062V123.5H26.25V191ZM50.2031 191H41.5781V123.5H53.6719L94.6875 169.859V123.5H103.266V191H91.1719L50.2031 144.688V191Z" fill="#6B7280"/>
<path d="M233 191H217.109V143.141H207.266V136.859H217.109V116.938H233V136.859H249.406V143.141H233V191ZM322.062 158.703V159.594C322 162.219 321.719 164.938 321.219 167.75C320.75 170.562 320.078 173.375 319.203 176.188C318.328 179 317.281 181.781 316.062 184.531C314.844 187.281 313.469 189.906 311.938 192.406C310.438 194.938 308.812 197.297 307.062 199.484C305.312 201.703 303.469 203.656 301.531 205.344L294.547 201.312C295.641 199.469 296.625 197.453 297.5 195.266C298.406 193.109 299.219 190.844 299.938 188.469C300.656 186.094 301.266 183.656 301.766 181.156C302.297 178.656 302.734 176.172 303.078 173.703C303.422 171.234 303.672 168.812 303.828 166.438C304.016 164.031 304.109 161.75 304.109 159.594C304.109 157.906 304.094 156 304.062 153.875C304.062 151.719 303.938 149.531 303.688 147.312C303.469 145.094 303.094 142.938 302.562 140.844C302.031 138.719 301.234 136.828 300.172 135.172C299.141 133.516 297.797 132.188 296.141 131.188C294.516 130.188 292.484 129.688 290.047 129.688C287.891 129.688 286.031 130.062 284.469 130.812C282.938 131.531 281.625 132.516 280.531 133.766C279.469 134.984 278.609 136.406 277.953 138.031C277.328 139.656 276.828 141.375 276.453 143.188C276.109 144.969 275.875 146.781 275.75 148.625C275.656 150.438 275.609 152.156 275.609 153.781V166.859H295.812V174.594H275.609V191H257V156.688C257 151.781 257.781 147.219 259.344 143C260.906 138.781 263.109 135.125 265.953 132.031C268.828 128.906 272.266 126.469 276.266 124.719C280.297 122.938 284.781 122.047 289.719 122.047C293.062 122.047 296.188 122.531 299.094 123.5C302.031 124.438 304.703 125.75 307.109 127.438C309.516 129.094 311.656 131.078 313.531 133.391C315.438 135.672 317.016 138.172 318.266 140.891C319.547 143.609 320.516 146.484 321.172 149.516C321.828 152.547 322.125 155.609 322.062 158.703ZM352.812 191H334.203V123.5H370.672C373.828 123.5 376.844 123.922 379.719 124.766C382.625 125.609 385.188 126.891 387.406 128.609C389.625 130.297 391.391 132.438 392.703 135.031C394.047 137.594 394.719 140.609 394.719 144.078C394.719 146.266 394.406 148.328 393.781 150.266C393.156 152.172 392.281 153.922 391.156 155.516C390.062 157.109 388.766 158.547 387.266 159.828C385.766 161.109 384.125 162.188 382.344 163.062C380.562 163.938 378.672 164.609 376.672 165.078C374.703 165.547 372.703 165.781 370.672 165.781H352.812V191ZM375.875 144.078C375.875 139.734 374.766 136.328 372.547 133.859C370.359 131.359 367.047 130.109 362.609 130.109H352.812V159.406H362.609C364.984 159.406 367 159.031 368.656 158.281C370.344 157.5 371.719 156.422 372.781 155.047C373.844 153.672 374.625 152.062 375.125 150.219C375.625 148.344 375.875 146.297 375.875 144.078ZM423.031 191H404.422V123.5H423.031V191Z" fill="#6B7280"/>
</svg>
