<svg width="1750" height="483" viewBox="0 0 1750 483" fill="none" xmlns="http://www.w3.org/2000/svg">
<ellipse cx="883" cy="261.5" rx="233" ry="140.5" fill="#D9D9D9"/>
<ellipse cx="1217.5" cy="241" rx="307.5" ry="180" fill="#D9D9D9"/>
<ellipse cx="1442.5" cy="241.5" rx="307.5" ry="241.5" fill="#D9D9D9"/>
<path d="M172.754 304.332C144.272 279.89 144.27 240.121 172.754 215.674C177.665 211.459 185.63 211.459 190.54 215.674C195.451 219.888 195.451 226.721 190.54 230.937C171.863 246.963 171.866 273.043 190.54 289.067C192.995 291.175 194.224 293.938 194.224 296.7C194.224 299.461 192.996 302.224 190.54 304.332C185.628 308.548 177.664 308.548 172.754 304.332Z" fill="#D9D9D9"/>
<path d="M611.204 482.84L495.703 465.686C449.025 458.723 411.891 437.064 396.376 407.762C395.082 405.328 393.539 402.9 391.789 400.549C373.543 376.055 333.165 360.225 288.922 360.225H227.225C182.679 360.225 139.503 352.284 98.9108 336.631C68.0545 324.773 39.7639 308.751 14.8486 289.024C6.19701 282.21 0.97028 272.914 0.128267 262.871C-0.915375 250.844 4.44767 239.208 14.8287 230.985C39.9258 211.132 68.4818 195.01 99.7116 183.066C99.757 183.049 99.801 183.035 99.8451 183.018C99.8933 183 99.943 182.981 99.9913 182.963C104.446 181.266 108.894 179.673 113.194 178.241C149.708 166.006 188.073 159.801 227.225 159.801H245.722C252.668 159.801 258.3 164.632 258.3 170.595C258.3 176.557 252.668 181.388 245.722 181.388L227.225 181.388C191.217 181.388 155.929 187.096 122.321 198.357C120.702 198.897 119.051 199.476 117.4 200.06V319.959C152.34 332.351 189.24 338.641 227.225 338.641L639.333 338.641V293.832H600.403C593.456 293.832 587.825 289.001 587.825 283.039C587.825 277.077 593.456 272.245 600.403 272.245L701.835 272.245V247.78L550.62 247.78C542.76 247.78 536.366 253.267 536.366 260.012C536.366 266.758 542.76 272.245 550.62 272.245H558.478C565.424 272.245 571.056 277.077 571.056 283.039C571.056 289.001 565.424 293.832 558.478 293.832H550.62C528.89 293.832 511.212 278.661 511.212 260.014C511.212 241.365 528.891 226.195 550.62 226.195H639.333V181.388H286.406C279.459 181.388 273.828 176.557 273.828 170.595C273.828 164.632 279.459 159.801 286.406 159.801H288.922C333.132 159.801 373.505 143.971 391.779 119.468C393.56 117.084 395.098 114.663 396.369 112.248C411.89 82.9365 449.026 61.2883 495.708 54.3439L611.2 37.1603C617.606 36.2062 623.803 39.5998 625.493 44.9856L661.54 159.801H714.422C721.369 159.801 727 164.632 727 170.595V349.435C727 355.397 721.369 360.229 714.422 360.229H661.54L625.494 475.016C623.803 480.402 617.608 483.793 611.204 482.84ZM92.2442 210.197C70.376 220.139 50.1308 232.42 31.8848 246.853C27.1778 250.582 24.7596 255.858 25.2154 261.305C25.5974 265.851 27.9559 270.049 31.882 273.142C50.1649 287.618 70.4073 299.908 92.2457 309.827V210.197H92.2442ZM635.489 159.801L604.191 60.1112L575.751 64.3455V159.801L635.489 159.801ZM550.596 159.801V68.0876L500.004 75.6108C462.101 81.2501 431.165 98.7103 419.283 121.153C417.524 124.497 415.396 127.846 412.963 131.107C404.648 142.254 392.88 151.965 378.733 159.801H550.596ZM701.846 226.192V181.386L664.489 181.386V226.192L701.846 226.192ZM701.845 338.64V293.831H664.488V338.64H701.845ZM635.489 360.227H579.395C579.384 360.227 579.374 360.229 579.361 360.229H575.75V385.211C575.75 391.173 570.119 396.004 563.172 396.004C556.226 396.004 550.595 391.173 550.595 385.211V360.229L389.982 360.229C389.97 360.229 389.96 360.227 389.951 360.227H378.739C392.895 368.065 404.677 377.772 412.986 388.927C415.37 392.131 417.484 395.455 419.272 398.819C431.169 421.291 462.107 438.764 500.002 444.415L550.598 451.93V421.189C550.598 415.227 556.229 410.395 563.175 410.395C570.121 410.395 575.753 415.227 575.753 421.189V455.667L604.193 459.89L635.489 360.227Z" fill="#D9D9D9"/>
<path d="M790.448 255.8L804.752 253.688L817.808 279.896C818.192 280.728 818.64 281.368 819.152 281.816C819.728 282.2 820.368 282.456 821.072 282.584C821.776 282.648 822.576 282.68 823.472 282.68H823.952V287H804.464L790.448 255.8ZM782.288 281.72C782.288 281.912 782.48 282.072 782.864 282.2C783.248 282.264 783.728 282.36 784.304 282.488C784.88 282.552 785.52 282.616 786.224 282.68C786.928 282.68 787.632 282.68 788.336 282.68H789.392V287H759.728V282.68H760.592C762.384 282.68 763.888 282.488 765.104 282.104C766.384 281.656 767.024 280.728 767.024 279.32V226.52C767.024 225.112 766.384 224.216 765.104 223.832C763.888 223.384 762.384 223.16 760.592 223.16H759.728V218.84H792.08C797.52 218.84 802.16 219.64 806 221.24C809.84 222.84 812.784 225.08 814.832 227.96C816.88 230.776 817.904 234.104 817.904 237.944C817.904 241.592 816.976 244.792 815.12 247.544C813.264 250.296 810.608 252.504 807.152 254.168C803.696 255.832 799.504 256.824 794.576 257.144C794.192 257.208 793.744 257.272 793.232 257.336C792.784 257.336 792.304 257.368 791.792 257.432C791.344 257.432 790.864 257.432 790.352 257.432H779.888V252.536H789.392C792.4 252.536 794.8 251.992 796.592 250.904C798.448 249.752 799.824 248.088 800.72 245.912C801.616 243.736 802.064 241.048 802.064 237.848C802.064 234.84 801.616 232.312 800.72 230.264C799.824 228.152 798.448 226.584 796.592 225.56C794.8 224.472 792.56 223.928 789.872 223.928H782.288V281.72ZM841.637 262.52C841.637 265.848 841.957 268.792 842.597 271.352C843.237 273.848 844.165 275.928 845.381 277.592C846.661 279.256 848.197 280.536 849.989 281.432C851.845 282.264 853.925 282.68 856.229 282.68C858.661 282.68 860.805 282.232 862.661 281.336C864.517 280.44 866.117 279.256 867.461 277.784C868.869 276.248 870.021 274.648 870.917 272.984L875.045 276.056C873.829 278.424 872.229 280.504 870.245 282.296C868.325 284.088 866.021 285.496 863.333 286.52C860.709 287.48 857.637 287.96 854.117 287.96C848.805 287.96 844.101 286.936 840.005 284.888C835.973 282.776 832.805 279.8 830.501 275.96C828.197 272.12 827.045 267.608 827.045 262.424C827.045 257.24 828.133 252.696 830.309 248.792C832.549 244.888 835.589 241.848 839.429 239.672C843.269 237.496 847.589 236.408 852.389 236.408C856.165 236.408 859.493 236.984 862.373 238.136C865.253 239.288 867.685 240.984 869.669 243.224C871.653 245.4 873.157 248.152 874.181 251.48C875.269 254.744 875.813 258.552 875.813 262.904H837.029L836.933 258.2H864.389L862.085 259.736C862.021 256.408 861.797 253.592 861.413 251.288C861.029 248.92 860.453 247.032 859.685 245.624C858.917 244.152 857.925 243.096 856.709 242.456C855.557 241.752 854.213 241.4 852.677 241.4C851.013 241.4 849.509 241.816 848.165 242.648C846.821 243.48 845.669 244.76 844.709 246.488C843.749 248.216 842.981 250.424 842.405 253.112C841.893 255.736 841.637 258.872 841.637 262.52ZM912.31 275.576C912.31 274.296 911.99 273.24 911.35 272.408C910.71 271.576 909.814 270.872 908.662 270.296C907.574 269.72 906.262 269.208 904.726 268.76C903.254 268.248 901.622 267.736 899.83 267.224C897.974 266.712 896.054 266.104 894.07 265.4C892.15 264.696 890.358 263.768 888.694 262.616C887.094 261.464 885.814 259.992 884.854 258.2C883.894 256.408 883.414 254.136 883.414 251.384C883.414 248.248 884.246 245.56 885.91 243.32C887.574 241.08 889.91 239.384 892.918 238.232C895.926 237.016 899.478 236.408 903.574 236.408C906.774 236.408 909.558 236.664 911.926 237.176C914.358 237.688 916.342 238.296 917.878 239C919.414 239.704 920.502 240.312 921.142 240.824V250.328H910.87V240.824C911.51 240.824 912.054 240.984 912.502 241.304C912.95 241.56 913.27 241.912 913.462 242.36C913.718 242.808 913.846 243.288 913.846 243.8C913.846 244.248 913.782 244.632 913.654 244.952C913.014 244.184 912.214 243.544 911.254 243.032C910.294 242.456 909.206 242.008 907.99 241.688C906.774 241.368 905.366 241.208 903.766 241.208C900.694 241.208 898.422 241.848 896.95 243.128C895.478 244.408 894.742 246.04 894.742 248.024C894.742 249.368 895.094 250.488 895.798 251.384C896.502 252.28 897.43 253.048 898.582 253.688C899.798 254.264 901.174 254.776 902.71 255.224C904.31 255.672 906.006 256.152 907.798 256.664C909.782 257.176 911.734 257.816 913.654 258.584C915.638 259.288 917.43 260.184 919.03 261.272C920.694 262.36 922.006 263.768 922.966 265.496C923.99 267.16 924.502 269.24 924.502 271.736C924.502 275.064 923.638 277.944 921.91 280.376C920.182 282.808 917.686 284.696 914.422 286.04C911.158 287.32 907.158 287.96 902.422 287.96C899.03 287.96 895.99 287.672 893.302 287.096C890.678 286.52 888.406 285.816 886.486 284.984C884.566 284.152 882.998 283.352 881.782 282.584V272.216H892.534V283.832C891.83 283.448 891.222 283.032 890.71 282.584C890.262 282.072 889.942 281.592 889.75 281.144C889.558 280.696 889.494 280.28 889.558 279.896C889.622 279.448 889.782 279.032 890.038 278.648C890.934 279.672 891.99 280.504 893.206 281.144C894.422 281.784 895.798 282.296 897.334 282.68C898.87 283 900.502 283.16 902.23 283.16C904.406 283.16 906.23 282.872 907.702 282.296C909.174 281.656 910.294 280.792 911.062 279.704C911.894 278.552 912.31 277.176 912.31 275.576ZM957.242 308.408H929.402V304.28H929.498C930.65 304.28 931.642 304.184 932.474 303.992C933.37 303.864 934.074 303.576 934.586 303.128C935.098 302.68 935.354 302.072 935.354 301.304V245.336C935.354 244.568 935.162 243.992 934.778 243.608C934.458 243.16 933.914 242.808 933.146 242.552C932.442 242.296 931.514 242.04 930.362 241.784L929.402 241.592V237.368H948.89V248.792L949.946 249.08V303.416C949.946 303.608 950.266 303.768 950.906 303.896C951.61 304.024 952.442 304.12 953.402 304.184C954.362 304.248 955.226 304.28 955.994 304.28H957.242V308.408ZM964.538 287.96C961.53 287.96 958.906 287.544 956.666 286.712C954.426 285.816 952.442 284.408 950.714 282.488C948.986 280.568 947.418 278.008 946.01 274.808L947.834 269.72C948.858 272.408 949.978 274.68 951.194 276.536C952.474 278.392 953.914 279.768 955.514 280.664C957.178 281.56 959.002 282.008 960.986 282.008C962.97 282.008 964.666 281.56 966.074 280.664C967.546 279.704 968.73 278.36 969.626 276.632C970.586 274.84 971.29 272.696 971.738 270.2C972.25 267.704 972.506 264.856 972.506 261.656C972.506 258.584 972.282 255.896 971.834 253.592C971.386 251.224 970.714 249.24 969.818 247.64C968.922 246.04 967.802 244.824 966.458 243.992C965.114 243.16 963.546 242.744 961.754 242.744C959.642 242.744 957.722 243.288 955.994 244.376C954.33 245.4 952.794 246.936 951.386 248.984C949.978 250.968 948.666 253.368 947.45 256.184L946.01 251.288C947.674 247.96 949.434 245.208 951.29 243.032C953.146 240.792 955.226 239.128 957.53 238.04C959.898 236.952 962.618 236.408 965.69 236.408C969.978 236.408 973.754 237.464 977.018 239.576C980.346 241.688 982.906 244.632 984.698 248.408C986.554 252.184 987.482 256.6 987.482 261.656C987.482 266.84 986.522 271.416 984.602 275.384C982.682 279.288 979.994 282.36 976.538 284.6C973.082 286.84 969.082 287.96 964.538 287.96ZM1048.25 262.232C1048.25 267.288 1047.1 271.768 1044.79 275.672C1042.55 279.512 1039.42 282.52 1035.39 284.696C1031.35 286.872 1026.62 287.96 1021.18 287.96C1015.8 287.96 1011.07 286.904 1006.97 284.792C1002.94 282.616 999.802 279.576 997.562 275.672C995.322 271.768 994.202 267.288 994.202 262.232C994.202 258.456 994.842 255 996.122 251.864C997.402 248.664 999.226 245.944 1001.59 243.704C1004.03 241.4 1006.87 239.608 1010.14 238.328C1013.47 237.048 1017.15 236.408 1021.18 236.408C1025.27 236.408 1028.95 237.048 1032.22 238.328C1035.55 239.544 1038.39 241.304 1040.76 243.608C1043.19 245.912 1045.05 248.664 1046.33 251.864C1047.61 255 1048.25 258.456 1048.25 262.232ZM1009.18 262.232C1009.18 266.776 1009.63 270.616 1010.52 273.752C1011.48 276.824 1012.86 279.16 1014.65 280.76C1016.44 282.296 1018.62 283.064 1021.18 283.064C1023.8 283.064 1025.98 282.296 1027.71 280.76C1029.5 279.16 1030.84 276.824 1031.74 273.752C1032.7 270.616 1033.18 266.776 1033.18 262.232C1033.18 257.624 1032.7 253.784 1031.74 250.712C1030.84 247.64 1029.5 245.336 1027.71 243.8C1025.98 242.2 1023.8 241.4 1021.18 241.4C1018.62 241.4 1016.44 242.2 1014.65 243.8C1012.86 245.336 1011.48 247.64 1010.52 250.712C1009.63 253.784 1009.18 257.624 1009.18 262.232ZM1054 287V282.872H1054.19C1055.28 282.872 1056.24 282.808 1057.07 282.68C1057.97 282.488 1058.67 282.168 1059.18 281.72C1059.76 281.272 1060.05 280.664 1060.05 279.896V245.336C1060.05 244.568 1059.85 243.992 1059.47 243.608C1059.15 243.16 1058.61 242.808 1057.84 242.552C1057.07 242.296 1056.11 242.04 1054.96 241.784L1054 241.592V237.368H1073.58V247.736L1074.54 248.216V282.008C1074.54 282.2 1074.8 282.36 1075.31 282.488C1075.89 282.616 1076.56 282.712 1077.33 282.776C1078.16 282.84 1078.96 282.872 1079.73 282.872H1079.92V287H1054ZM1112.75 287H1086.93V282.872H1087.02C1087.73 282.872 1088.49 282.84 1089.33 282.776C1090.16 282.712 1090.86 282.616 1091.44 282.488C1092.01 282.36 1092.3 282.2 1092.3 282.008V252.056C1092.3 250.008 1092.08 248.344 1091.63 247.064C1091.18 245.784 1090.48 244.856 1089.52 244.28C1088.62 243.704 1087.41 243.416 1085.87 243.416C1084.14 243.416 1082.51 243.832 1080.97 244.664C1079.44 245.496 1078 246.744 1076.65 248.408C1075.37 250.008 1074.16 251.96 1073.01 254.264L1072.05 248.888C1073.52 246.264 1075.15 244.056 1076.94 242.264C1078.8 240.408 1080.88 238.968 1083.18 237.944C1085.55 236.92 1088.17 236.408 1091.05 236.408C1094.25 236.408 1097.04 237.016 1099.41 238.232C1101.77 239.448 1103.6 241.272 1104.88 243.704C1106.16 246.072 1106.8 249.048 1106.8 252.632V279.896C1106.8 280.664 1107.05 281.272 1107.57 281.72C1108.08 282.168 1108.75 282.488 1109.58 282.68C1110.48 282.808 1111.5 282.872 1112.65 282.872H1112.75V287ZM1147.62 275.576C1147.62 274.296 1147.3 273.24 1146.66 272.408C1146.02 271.576 1145.13 270.872 1143.97 270.296C1142.89 269.72 1141.57 269.208 1140.04 268.76C1138.57 268.248 1136.93 267.736 1135.14 267.224C1133.29 266.712 1131.37 266.104 1129.38 265.4C1127.46 264.696 1125.67 263.768 1124.01 262.616C1122.41 261.464 1121.13 259.992 1120.17 258.2C1119.21 256.408 1118.73 254.136 1118.73 251.384C1118.73 248.248 1119.56 245.56 1121.22 243.32C1122.89 241.08 1125.22 239.384 1128.23 238.232C1131.24 237.016 1134.79 236.408 1138.89 236.408C1142.09 236.408 1144.87 236.664 1147.24 237.176C1149.67 237.688 1151.65 238.296 1153.19 239C1154.73 239.704 1155.81 240.312 1156.45 240.824V250.328H1146.18V240.824C1146.82 240.824 1147.37 240.984 1147.81 241.304C1148.26 241.56 1148.58 241.912 1148.77 242.36C1149.03 242.808 1149.16 243.288 1149.16 243.8C1149.16 244.248 1149.09 244.632 1148.97 244.952C1148.33 244.184 1147.53 243.544 1146.57 243.032C1145.61 242.456 1144.52 242.008 1143.3 241.688C1142.09 241.368 1140.68 241.208 1139.08 241.208C1136.01 241.208 1133.73 241.848 1132.26 243.128C1130.79 244.408 1130.05 246.04 1130.05 248.024C1130.05 249.368 1130.41 250.488 1131.11 251.384C1131.81 252.28 1132.74 253.048 1133.89 253.688C1135.11 254.264 1136.49 254.776 1138.02 255.224C1139.62 255.672 1141.32 256.152 1143.11 256.664C1145.09 257.176 1147.05 257.816 1148.97 258.584C1150.95 259.288 1152.74 260.184 1154.34 261.272C1156.01 262.36 1157.32 263.768 1158.28 265.496C1159.3 267.16 1159.81 269.24 1159.81 271.736C1159.81 275.064 1158.95 277.944 1157.22 280.376C1155.49 282.808 1153 284.696 1149.73 286.04C1146.47 287.32 1142.47 287.96 1137.73 287.96C1134.34 287.96 1131.3 287.672 1128.61 287.096C1125.99 286.52 1123.72 285.816 1121.8 284.984C1119.88 284.152 1118.31 283.352 1117.09 282.584V272.216H1127.85V283.832C1127.14 283.448 1126.53 283.032 1126.02 282.584C1125.57 282.072 1125.25 281.592 1125.06 281.144C1124.87 280.696 1124.81 280.28 1124.87 279.896C1124.93 279.448 1125.09 279.032 1125.35 278.648C1126.25 279.672 1127.3 280.504 1128.52 281.144C1129.73 281.784 1131.11 282.296 1132.65 282.68C1134.18 283 1135.81 283.16 1137.54 283.16C1139.72 283.16 1141.54 282.872 1143.01 282.296C1144.49 281.656 1145.61 280.792 1146.37 279.704C1147.21 278.552 1147.62 277.176 1147.62 275.576ZM1180.26 262.52C1180.26 265.848 1180.58 268.792 1181.22 271.352C1181.86 273.848 1182.79 275.928 1184.01 277.592C1185.29 279.256 1186.82 280.536 1188.61 281.432C1190.47 282.264 1192.55 282.68 1194.85 282.68C1197.29 282.68 1199.43 282.232 1201.29 281.336C1203.14 280.44 1204.74 279.256 1206.09 277.784C1207.49 276.248 1208.65 274.648 1209.54 272.984L1213.67 276.056C1212.45 278.424 1210.85 280.504 1208.87 282.296C1206.95 284.088 1204.65 285.496 1201.96 286.52C1199.33 287.48 1196.26 287.96 1192.74 287.96C1187.43 287.96 1182.73 286.936 1178.63 284.888C1174.6 282.776 1171.43 279.8 1169.13 275.96C1166.82 272.12 1165.67 267.608 1165.67 262.424C1165.67 257.24 1166.76 252.696 1168.93 248.792C1171.17 244.888 1174.21 241.848 1178.05 239.672C1181.89 237.496 1186.21 236.408 1191.01 236.408C1194.79 236.408 1198.12 236.984 1201 238.136C1203.88 239.288 1206.31 240.984 1208.29 243.224C1210.28 245.4 1211.78 248.152 1212.81 251.48C1213.89 254.744 1214.44 258.552 1214.44 262.904H1175.65L1175.56 258.2H1203.01L1200.71 259.736C1200.65 256.408 1200.42 253.592 1200.04 251.288C1199.65 248.92 1199.08 247.032 1198.31 245.624C1197.54 244.152 1196.55 243.096 1195.33 242.456C1194.18 241.752 1192.84 241.4 1191.3 241.4C1189.64 241.4 1188.13 241.816 1186.79 242.648C1185.45 243.48 1184.29 244.76 1183.33 246.488C1182.37 248.216 1181.61 250.424 1181.03 253.112C1180.52 255.736 1180.26 258.872 1180.26 262.52Z" fill="#101010" fill-opacity="0.51"/>
<path d="M1436.76 299.662C1435.62 298.053 1434.33 296.896 1432.88 296.185C1431.43 295.474 1429.91 295.121 1428.3 295.121C1426.65 295.121 1425.08 295.448 1423.59 296.112C1422.09 296.777 1420.76 297.898 1419.58 299.48C1418.4 301.063 1417.47 303.108 1416.81 305.62C1416.14 308.126 1415.78 311.199 1415.74 314.842C1415.78 318.392 1416.13 321.417 1416.77 323.924C1417.42 326.43 1418.31 328.475 1419.45 330.063C1420.59 331.651 1421.88 332.803 1423.32 333.54C1424.77 334.277 1426.3 334.64 1427.9 334.64C1429.55 334.64 1431.12 334.298 1432.62 333.613C1434.11 332.928 1435.45 331.802 1436.63 330.245C1437.8 328.688 1438.73 326.638 1439.4 324.105C1440.06 321.573 1440.42 318.49 1440.47 314.847C1440.42 311.297 1440.08 308.282 1439.43 305.801C1438.79 303.321 1437.9 301.271 1436.76 299.662Z" fill="#4B4B4B"/>
<path d="M1524 263.397V133.541C1524 129.566 1523.55 126.623 1521.31 124.241L1464.42 63.8543C1462.71 62.0431 1460.35 61 1457.93 61H1316.04C1310.24 61 1304 65.7537 1304 76.1849V263.397H1524ZM1416.44 232.259C1416.44 235.123 1414.26 237.448 1411.56 237.448C1408.85 237.448 1406.67 235.123 1406.67 232.259V216.69C1406.67 213.825 1408.85 211.5 1411.56 211.5C1414.26 211.5 1416.44 213.825 1416.44 216.69V232.259ZM1455.56 78.5981C1455.56 76.2213 1458.26 75.0328 1459.84 76.7143L1509.2 129.104C1510.78 130.785 1509.66 133.655 1507.42 133.655H1455.56V78.5981ZM1450.67 185.552V164.793C1450.67 161.934 1448.48 159.603 1445.78 159.603C1443.07 159.603 1440.89 157.279 1440.89 154.414C1440.89 151.549 1443.07 149.224 1445.78 149.224C1453.86 149.224 1460.44 156.209 1460.44 164.793V185.552C1460.44 191.276 1464.83 195.931 1470.22 195.931C1472.93 195.931 1475.11 198.256 1475.11 201.121C1475.11 203.985 1472.93 206.31 1470.22 206.31C1464.83 206.31 1460.44 210.966 1460.44 216.69V237.448C1460.44 246.032 1453.86 253.017 1445.78 253.017C1443.07 253.017 1440.89 250.692 1440.89 247.828C1440.89 244.963 1443.07 242.638 1445.78 242.638C1448.48 242.638 1450.67 240.308 1450.67 237.448V216.69C1450.67 210.462 1453.32 204.93 1457.42 201.121C1453.32 197.312 1450.67 191.779 1450.67 185.552ZM1411.56 175.172C1415.6 175.172 1418.89 178.66 1418.89 182.957C1418.89 187.254 1415.6 190.741 1411.56 190.741C1407.51 190.741 1404.22 187.254 1404.22 182.957C1404.22 178.66 1407.51 175.172 1411.56 175.172ZM1352.89 195.931C1358.28 195.931 1362.67 191.276 1362.67 185.552V164.793C1362.67 156.209 1369.25 149.224 1377.33 149.224C1380.04 149.224 1382.22 151.549 1382.22 154.414C1382.22 157.279 1380.04 159.603 1377.33 159.603C1374.63 159.603 1372.44 161.934 1372.44 164.793V185.552C1372.44 191.779 1369.79 197.312 1365.69 201.121C1369.79 204.93 1372.44 210.462 1372.44 216.69V237.448C1372.44 240.308 1374.63 242.638 1377.33 242.638C1380.04 242.638 1382.22 244.963 1382.22 247.828C1382.22 250.692 1380.04 253.017 1377.33 253.017C1369.25 253.017 1362.67 246.032 1362.67 237.448V216.69C1362.67 210.966 1358.28 206.31 1352.89 206.31C1350.19 206.31 1348 203.985 1348 201.121C1348 198.256 1350.19 195.931 1352.89 195.931Z" fill="#4B4B4B"/>
<path d="M1304 273.776V351.621C1304 356.857 1309.96 362 1316.04 362H1511.96C1518.04 362 1524 356.857 1524 351.621V273.776H1304ZM1360.32 328.61C1360.32 331.07 1359.9 333.14 1359.05 334.817C1358.21 336.493 1357.07 337.842 1355.65 338.859C1354.22 339.877 1352.58 340.588 1350.73 340.987C1348.88 341.387 1346.98 341.589 1345.02 341.589C1344.04 341.589 1342.89 341.48 1341.58 341.267C1340.27 341.055 1338.9 340.728 1337.5 340.276C1336.1 339.825 1334.75 339.316 1333.46 338.75C1332.16 338.185 1331.07 337.546 1330.18 336.835L1333.59 331.09C1334.03 331.417 1334.67 331.765 1335.49 332.118C1336.32 332.471 1337.22 332.803 1338.2 333.109C1339.18 333.415 1340.21 333.685 1341.28 333.924C1342.35 334.163 1343.35 334.277 1344.28 334.277C1346.65 334.277 1348.53 333.789 1349.93 332.824C1351.33 331.858 1352.08 330.208 1352.17 327.894V287.876H1360.32V328.61ZM1399.13 332.409C1398.39 334.183 1397.36 335.746 1396.02 337.09C1394.68 338.434 1393.04 339.513 1391.07 340.318C1389.11 341.122 1386.89 341.522 1384.39 341.522C1383.32 341.522 1382.22 341.459 1381.08 341.345C1379.94 341.231 1378.8 341.023 1377.64 340.743C1376.48 340.458 1375.37 340.069 1374.33 339.57C1373.28 339.072 1372.38 338.47 1371.62 337.759L1373.02 331.656C1373.65 332.035 1374.43 332.403 1375.39 332.756C1376.35 333.109 1377.34 333.441 1378.36 333.748C1379.39 334.054 1380.41 334.303 1381.44 334.495C1382.47 334.687 1383.42 334.78 1384.31 334.78C1387.03 334.78 1389.12 334.106 1390.56 332.756C1392.01 331.407 1392.73 329.409 1392.73 326.762C1392.73 325.153 1392.22 323.783 1391.2 322.647C1390.17 321.51 1388.89 320.483 1387.36 319.559C1385.82 318.635 1384.16 317.717 1382.37 316.793C1380.59 315.869 1378.92 314.779 1377.36 313.529C1375.8 312.278 1374.51 310.799 1373.49 309.097C1372.46 307.394 1371.95 305.267 1371.95 302.713C1371.95 300.399 1372.35 298.339 1373.15 296.543C1373.96 294.747 1375.04 293.216 1376.39 291.966C1377.75 290.715 1379.34 289.755 1381.14 289.091C1382.95 288.426 1384.85 288.099 1386.86 288.099C1388.91 288.099 1390.98 288.302 1393.07 288.701C1395.16 289.101 1396.85 289.755 1398.15 290.653C1397.88 291.265 1397.57 291.94 1397.22 292.677C1396.86 293.414 1396.52 294.093 1396.21 294.732C1395.91 295.37 1395.64 295.905 1395.41 296.33C1395.19 296.756 1395.06 296.994 1395.01 297.041C1394.74 296.901 1394.44 296.714 1394.11 296.475C1393.77 296.237 1393.3 296.003 1392.67 295.764C1392.04 295.526 1391.22 295.365 1390.2 295.266C1389.17 295.168 1387.85 295.194 1386.25 295.339C1385.36 295.437 1384.52 295.702 1383.71 296.154C1382.9 296.605 1382.19 297.155 1381.57 297.82C1380.94 298.484 1380.45 299.226 1380.1 300.056C1379.74 300.887 1379.56 301.681 1379.56 302.433C1379.56 304.322 1380.07 305.848 1381.1 307.01C1382.12 308.173 1383.4 309.185 1384.91 310.062C1386.42 310.939 1388.07 311.79 1389.85 312.615C1391.64 313.44 1393.3 314.452 1394.84 315.63C1396.38 316.808 1397.65 318.293 1398.68 320.062C1399.7 321.832 1400.21 324.116 1400.21 326.908C1400.23 328.802 1399.86 330.634 1399.13 332.409ZM1447.05 326.482C1446.01 329.84 1444.56 332.632 1442.71 334.853C1440.86 337.074 1438.7 338.756 1436.22 339.892C1433.75 341.029 1431.04 341.594 1428.1 341.594C1425.17 341.594 1422.46 341.029 1419.98 339.892C1417.51 338.756 1415.35 337.079 1413.5 334.853C1411.65 332.627 1410.2 329.84 1409.16 326.482C1408.11 323.124 1407.59 319.242 1407.59 314.847C1407.59 310.451 1408.11 306.58 1409.16 303.248C1410.2 299.916 1411.65 297.135 1413.5 294.913C1415.35 292.692 1417.51 291 1419.98 289.838C1422.46 288.675 1425.17 288.099 1428.1 288.099C1431.04 288.099 1433.75 288.675 1436.22 289.838C1438.7 291 1440.86 292.687 1442.71 294.913C1444.56 297.14 1446.01 299.916 1447.05 303.248C1448.1 306.58 1448.62 310.451 1448.62 314.847C1448.62 319.242 1448.1 323.124 1447.05 326.482ZM1495.55 341.241H1487.39L1468.08 305.199V341.241H1459.92V288.95H1468.08L1487.39 324.993V288.95H1495.55V341.241Z" fill="#4B4B4B"/>
<path d="M257.694 246.592H284.702V250.56H257.694V246.592ZM247.582 272V268.672H248.158C249.396 268.672 250.42 268.523 251.23 268.224C252.084 267.925 252.51 267.328 252.51 266.432V232.128C252.51 231.232 252.084 230.635 251.23 230.336C250.42 230.037 249.396 229.888 248.158 229.888H247.582V226.56H267.614V229.888H267.038C266.569 229.888 266.078 229.909 265.566 229.952C265.054 229.952 264.585 229.995 264.158 230.08C263.732 230.123 263.369 230.187 263.07 230.272C262.814 230.315 262.686 230.379 262.686 230.464V268.096C262.686 268.181 262.814 268.267 263.07 268.352C263.369 268.395 263.732 268.459 264.158 268.544C264.585 268.587 265.054 268.629 265.566 268.672C266.078 268.672 266.569 268.672 267.038 268.672H267.614V272H247.582ZM275.678 272V268.672H276.254C276.724 268.672 277.214 268.672 277.726 268.672C278.238 268.629 278.708 268.587 279.134 268.544C279.561 268.459 279.902 268.395 280.158 268.352C280.414 268.267 280.542 268.181 280.542 268.096V230.464C280.542 230.379 280.414 230.315 280.158 230.272C279.902 230.187 279.561 230.123 279.134 230.08C278.708 229.995 278.238 229.952 277.726 229.952C277.214 229.909 276.724 229.888 276.254 229.888H275.678V226.56H295.71V229.888H295.07C293.876 229.888 292.852 230.037 291.998 230.336C291.188 230.635 290.782 231.232 290.782 232.128V266.432C290.782 267.328 291.188 267.925 291.998 268.224C292.852 268.523 293.876 268.672 295.07 268.672H295.71V272H275.678ZM314.802 266.432V230.464H311.858C310.237 230.464 308.914 230.549 307.89 230.72C306.909 230.848 306.162 231.125 305.65 231.552C305.138 231.979 304.84 232.576 304.754 233.344L303.922 240.192H299.89V226.56H339.954V240.192H335.922L335.154 233.344C335.069 232.576 334.77 231.979 334.258 231.552C333.746 231.125 332.978 230.848 331.954 230.72C330.973 230.549 329.672 230.464 328.05 230.464H325.042V266.432C325.042 267.371 325.448 267.989 326.258 268.288C327.069 268.544 328.093 268.672 329.33 268.672H330.29V272H309.554V268.672H310.578C311.773 268.672 312.776 268.544 313.586 268.288C314.397 267.989 314.802 267.371 314.802 266.432ZM359.552 266.432V230.464H356.608C354.987 230.464 353.664 230.549 352.64 230.72C351.659 230.848 350.912 231.125 350.4 231.552C349.888 231.979 349.59 232.576 349.504 233.344L348.672 240.192H344.64V226.56H384.704V240.192H380.672L379.904 233.344C379.819 232.576 379.52 231.979 379.008 231.552C378.496 231.125 377.728 230.848 376.704 230.72C375.723 230.549 374.422 230.464 372.8 230.464H369.792V266.432C369.792 267.371 370.198 267.989 371.008 268.288C371.819 268.544 372.843 268.672 374.08 268.672H375.04V272H354.304V268.672H355.328C356.523 268.672 357.526 268.544 358.336 268.288C359.147 267.989 359.552 267.371 359.552 266.432ZM404.125 267.84C404.125 268.011 404.253 268.16 404.509 268.288C404.765 268.373 405.085 268.459 405.469 268.544C405.896 268.587 406.344 268.629 406.813 268.672C407.283 268.672 407.752 268.672 408.221 268.672H409.757V272H389.021V268.672H389.661C390.856 268.672 391.859 268.544 392.669 268.288C393.523 267.989 393.949 267.371 393.949 266.432V232.128C393.949 231.232 393.523 230.635 392.669 230.336C391.859 230.037 390.856 229.888 389.661 229.888H389.021V226.56H410.653C416.157 226.56 420.424 227.733 423.453 230.08C426.483 232.427 427.997 235.691 427.997 239.872C427.997 242.688 427.272 245.141 425.821 247.232C424.413 249.323 422.387 250.944 419.741 252.096C417.096 253.248 413.981 253.824 410.397 253.824H402.141V249.92H408.669C410.632 249.92 412.275 249.536 413.597 248.768C414.963 248 415.987 246.891 416.669 245.44C417.352 243.947 417.693 242.133 417.693 240C417.693 237.867 417.352 236.096 416.669 234.688C416.029 233.28 415.048 232.235 413.725 231.552C412.445 230.869 410.845 230.528 408.925 230.528H404.125V267.84ZM450.708 268.544C452.414 268.544 453.886 268.309 455.124 267.84C456.404 267.371 457.364 266.624 458.004 265.6C458.686 264.576 459.028 263.253 459.028 261.632C459.028 260.309 458.708 259.2 458.068 258.304C457.47 257.365 456.617 256.597 455.508 256C454.441 255.36 453.161 254.805 451.668 254.336C450.174 253.824 448.574 253.312 446.868 252.8C445.204 252.331 443.561 251.755 441.94 251.072C440.361 250.389 438.932 249.515 437.652 248.448C436.372 247.381 435.348 246.08 434.58 244.544C433.812 242.965 433.428 241.024 433.428 238.72C433.428 236.032 434.089 233.749 435.412 231.872C436.777 229.952 438.569 228.48 440.788 227.456C443.006 226.432 445.46 225.92 448.148 225.92C450.452 225.92 452.5 226.24 454.292 226.88C456.084 227.52 457.641 228.544 458.964 229.952C460.286 231.36 461.374 233.216 462.228 235.52L459.476 234.88L460.5 226.56H464.34V238.464H460.116C459.561 236.672 458.75 235.157 457.684 233.92C456.617 232.64 455.358 231.659 453.908 230.976C452.5 230.293 450.942 229.952 449.236 229.952C447.614 229.952 446.228 230.208 445.076 230.72C443.966 231.189 443.113 231.893 442.516 232.832C441.961 233.728 441.684 234.816 441.684 236.096C441.684 237.376 441.982 238.443 442.58 239.296C443.22 240.107 444.073 240.811 445.14 241.408C446.206 241.963 447.422 242.453 448.788 242.88C450.196 243.307 451.689 243.733 453.268 244.16C455.102 244.629 456.852 245.205 458.516 245.888C460.222 246.571 461.758 247.445 463.124 248.512C464.489 249.536 465.556 250.837 466.324 252.416C467.134 253.995 467.54 255.936 467.54 258.24C467.54 261.184 466.857 263.744 465.492 265.92C464.126 268.053 462.228 269.717 459.796 270.912C457.406 272.064 454.612 272.64 451.412 272.64C448.894 272.64 446.526 272.256 444.308 271.488C442.132 270.72 440.19 269.504 438.484 267.84C436.82 266.176 435.497 263.979 434.516 261.248L437.396 262.336L436.372 272H432.34V257.92H436.82C437.588 260.181 438.633 262.123 439.956 263.744C441.321 265.323 442.921 266.517 444.756 267.328C446.59 268.139 448.574 268.544 450.708 268.544Z" fill="#101010" fill-opacity="0.51"/>
</svg>
